<?xml version="1.0" encoding="utf-8"?>
<!-- Generator: Adobe Illustrator 29.8.2, SVG Export Plug-In . SVG Version: 9.03 Build 0)  -->
<svg version="1.0" id="Layer_1" xmlns="http://www.w3.org/2000/svg" xmlns:xlink="http://www.w3.org/1999/xlink" x="0px" y="0px"
	 viewBox="0 0 200.7 85" style="enable-background:new 0 0 200.7 85;" xml:space="preserve">
<style type="text/css">
	.st0{fill:#FFFFFF;}
</style>
<g id="COLOR">
	<g transform="matrix( 1, 0, 0, 1, -0.05,-250.2) ">
		<g>
			<g id="Layer0_3_MEMBER_0_FILL">
				<path class="st0" d="M34.4,292.5l2.2-4.5c-9.4,4.7-16.9,9.5-22.4,14.2c-11.9,10.4-12,17.9-0.1,22.5c13.2,5.2,33.8,5.3,61.7,0.4
					H37.4v-9.4c-0.9-0.2-1.8-0.4-2.7-0.6c-0.3-0.1-0.6-0.2-0.9-0.2c-12.2-3.2-13.9-9.1-5.1-17.7C30.3,295.7,32.2,294.1,34.4,292.5
					 M101.2,265.4c-0.3,0.1-0.7,0.2-1,0.2c-10.5,2.5-20.5,5.4-30.2,8.7h1.8C81.1,271,90.9,268,101.2,265.4 M186.3,260.8
					c-0.4-0.2-0.9-0.3-1.3-0.5c9,4,8.3,10.2-2,18.6c-8.9,7.3-21.6,13.9-38,19.8v5.9h4.4c15.8-6.4,28.1-13.6,37.1-21.4
					C198.2,272.9,198.2,265.4,186.3,260.8z"/>
				<path class="st0" d="M170.8,261.7c6.4,3.1,5.1,7.8-3.9,14.1c-6.7,4.7-15.7,9-27,13v0.6c15.9-4.9,28-10.3,36.3-16.4
					c8.9-6.5,9.6-11.2,2.1-14.2c-5.8-2.3-15.5-3-29-1.9c-11.7,0.9-24.2,3-37.5,6.2c-13.1,3.2-24.9,6.9-35.3,11.2H79
					c9-3.5,18.8-6.5,29.7-9.2c12.8-3.1,24.7-5,35.7-5.8C157,258.5,165.8,259.2,170.8,261.7z"/>
			</g>
		</g>
	</g>
	<g>
		<g id="Layer0_3_MEMBER_1_FILL">
			<path class="st0" d="M127.4,57.7v-2.1h-5v18.6h5v-9.7c0-0.4,0-0.8,0.2-1.2c0.1-0.4,0.4-0.9,0.8-1.4c0.6-0.7,1.3-1.1,2.1-1.2
				c0.8-0.1,1.5-0.1,2,0c0.6,0.1,0.9,0.2,0.9,0.3v-5.4c0,0-0.3,0-1,0c-0.6,0-1.4,0.1-2.3,0.4C129.3,56.3,128.4,56.8,127.4,57.7
				 M143.8,49.1h-5v6.5h-3.5v4.5h3.5v14.2h5V60.1h4.3v-4.5h-4.3V49.1 M132.4,30c0.6,0.4,1,1,1.2,1.8c0.2,0.8,0.3,1.7,0.3,3v9.1h5
				V32.8c0-0.1,0-0.2,0-0.3v-0.1c0-0.7-0.1-1.4-0.3-2.1c-0.2-0.9-0.6-1.8-1.2-2.6c-0.6-0.8-1.3-1.5-2.3-2.1c-1-0.5-2.3-0.8-3.8-0.8
				c-0.9,0-1.7,0.2-2.3,0.4c-0.7,0.3-1.2,0.6-1.6,0.9c-0.4,0.3-0.7,0.7-1,0.9c-0.2,0.3-0.3,0.4-0.3,0.4v-2.2h-5v18.6h5v-9.2
				c0-0.9,0.2-1.7,0.4-2.3c0.3-0.6,0.6-1.1,0.9-1.5c0.4-0.4,0.8-0.7,1.1-0.9c0.5-0.3,1.2-0.5,1.9-0.5C131,29.5,131.7,29.6,132.4,30
				 M101.7,63.6c-0.2,1.3-0.1,2.5,0.2,3.8c0.3,1.3,0.8,2.4,1.5,3.4c0.7,1,1.6,1.9,2.7,2.6c0.8,0.5,1.5,0.8,2.4,1.1
				c0.8,0.3,1.7,0.4,2.6,0.4c0.4,0,0.7,0,1.1-0.1c0.4-0.1,0.7-0.1,1.1-0.2c0.7-0.2,1.4-0.4,2.1-0.8c0.6-0.3,1.2-0.7,1.8-1.3h0
				c0.5-0.4,0.9-0.8,1.3-1.3c0.4-0.5,0.7-1,0.9-1.5l0.5-0.9l-4.2-2l-0.4,0.8c-0.3,0.6-0.8,1.1-1.3,1.5c-0.5,0.4-1.1,0.7-1.8,0.8
				c-0.5,0.1-1.1,0.2-1.6,0.1c-0.5-0.1-1.1-0.2-1.6-0.5c-0.5-0.2-0.9-0.5-1.2-0.8c-0.3-0.3-0.6-0.7-0.9-1l13.6-3.3
				c0,0,0-0.3-0.1-0.8c-0.1-0.5-0.2-1.2-0.5-2c-0.3-0.8-0.7-1.7-1.3-2.5c-0.6-0.9-1.4-1.6-2.5-2.3c-0.8-0.5-1.6-0.9-2.4-1.1
				c-0.9-0.3-1.7-0.4-2.6-0.4c-0.4,0-0.8,0-1.1,0.1c-0.4,0.1-0.7,0.1-1.1,0.2c-1.2,0.3-2.3,0.8-3.4,1.5c-1,0.7-1.8,1.6-2.5,2.8
				C102.3,61.1,101.8,62.3,101.7,63.6 M106.2,64.4c0.1-0.5,0.3-1,0.5-1.5c0.3-0.5,0.6-1,1.1-1.5c0.5-0.5,1-0.8,1.7-1
				c0.9-0.3,1.7-0.3,2.5-0.2c0.8,0.2,1.4,0.5,2,0.9c0.6,0.4,0.9,0.8,1.1,1.3L106.2,64.4 M90.4,55.1c-0.9,0-1.7,0.2-2.4,0.4
				c-0.7,0.3-1.3,0.6-1.7,0.9c-0.5,0.4-0.9,0.7-1.1,0.9c-0.2,0.3-0.3,0.4-0.3,0.4l0-2.2h-5l0,27.5h5V72.4c0,0,0.2,0.2,0.7,0.6
				c0.4,0.4,1.1,0.7,1.9,1.1c0.8,0.4,1.9,0.6,3.1,0.6c1.2,0,2.4-0.2,3.5-0.7c1.1-0.5,2.1-1.2,3-2.1c0.9-0.9,1.5-2,2-3.2
				c0.5-1.2,0.7-2.4,0.7-3.8c0-1.8-0.5-3.5-1.3-5c-0.8-1.5-1.9-2.7-3.3-3.5C93.7,55.6,92.1,55.1,90.4,55.1 M89.7,59.3
				c0.7,0,1.3,0.1,1.9,0.4c0.6,0.3,1.1,0.7,1.6,1.2c0.5,0.5,0.9,1.1,1.1,1.8c0.3,0.7,0.4,1.4,0.4,2.1c0,0.8-0.1,1.5-0.4,2.2
				c-0.3,0.7-0.6,1.3-1.1,1.8c-0.4,0.5-1,0.9-1.6,1.2c-0.6,0.3-1.3,0.4-1.9,0.4c-0.7,0-1.3-0.1-1.9-0.4c-0.6-0.3-1.1-0.7-1.6-1.2
				c-0.5-0.5-0.9-1.1-1.1-1.8c-0.3-0.7-0.4-1.4-0.4-2.2c0-0.8,0.1-1.5,0.4-2.1c0.3-0.7,0.6-1.3,1.1-1.8c0.4-0.5,1-0.9,1.6-1.2
				C88.5,59.5,89.1,59.3,89.7,59.3 M54.8,62.6v-5.1H43.4v-5.3h14v-5.1H38.3v27.1h19.1v-5.1h-14v-6.6H54.8 M68.9,25.2h-5v18.6h5V25.2
				 M68.9,22.1v-5.3h-5v5.3H68.9 M100.2,34.6c0,1.9,0.5,3.5,1.3,5c0.8,1.5,2,2.7,3.4,3.5c1.4,0.9,3,1.3,4.7,1.4
				c1.3,0,2.5-0.3,3.6-0.8c1.2-0.5,2.2-1.2,3.1-2.1c0.9-0.9,1.6-2,2-3.2c0.5-1.2,0.7-2.4,0.7-3.8c0-1.8-0.5-3.5-1.3-4.9
				c-0.8-1.5-2-2.6-3.4-3.5c-1.4-0.9-3-1.3-4.8-1.3c-1.3,0-2.5,0.2-3.6,0.7c-1.1,0.5-2.2,1.2-3.1,2.2c-0.9,0.9-1.6,2-2,3.2
				C100.4,32.1,100.2,33.3,100.2,34.6 M106.4,31.1c0.4-0.5,0.9-0.9,1.5-1.1c0.5-0.3,1.1-0.4,1.7-0.4c0.9,0,1.6,0.2,2.3,0.7
				c0.7,0.5,1.3,1.1,1.7,1.8c0.4,0.8,0.6,1.6,0.6,2.6c0,1-0.2,1.8-0.6,2.6c-0.4,0.8-1,1.4-1.7,1.8c-0.7,0.5-1.5,0.7-2.3,0.7
				c-0.6,0-1.2-0.1-1.7-0.4c-0.5-0.2-1-0.6-1.5-1.1c-0.5-0.5-0.8-1-1-1.7c-0.2-0.6-0.3-1.3-0.3-2c0-0.7,0.1-1.3,0.3-1.9
				C105.6,32.1,106,31.5,106.4,31.1 M105.6,34.1c0,0.1-0.1,0.2-0.1,0.2c0,0.1,0,0.1,0,0.2c0,0.1,0,0.2,0.1,0.2c0,0,0.1,0,0.1,0
				c0,0,0.1,0,0.1,0c0.1,0,0.1-0.1,0.2-0.1c0.1,0,0.1-0.1,0.2-0.2c0.1,0,0.1-0.1,0.2-0.1c0.1,0,0.1-0.1,0.2-0.1
				c0.1,0,0.1-0.1,0.2-0.1c0.1,0,0.1,0,0.2-0.1c0.1,0,0.1,0,0.2,0c0.1,0,0.1,0,0.2,0c0.1,0,0.1,0,0.2,0c0.1,0,0.2,0,0.3,0
				c0.1,0,0.2,0.1,0.2,0.1c0.1,0,0.1,0.1,0.2,0.1c0,0,0.1,0.1,0.1,0.1c0.1,0,0.1,0.1,0.2,0.1c0,0,0,0,0,0c0,0-0.1,0-0.1,0
				c-0.1,0-0.1,0.1-0.2,0.1c-0.1,0-0.1,0.1-0.2,0.1c-0.1,0-0.2,0.1-0.2,0.2c-0.1,0.1-0.1,0.1-0.2,0.2c-0.1,0.1-0.1,0.1-0.2,0.2
				c0,0.1-0.1,0.1-0.1,0.2c0,0.1-0.1,0.1-0.1,0.2c0,0.1-0.1,0.1-0.1,0.2c0,0.1,0,0.2-0.1,0.3c0,0.1,0,0.2,0,0.3c0,0.1,0,0.2,0,0.3
				c0,0.1,0,0.2,0,0.3c0,0.1,0,0.2,0,0.3c0,0.1,0.1,0.2,0.1,0.3c0,0.1,0.1,0.2,0.1,0.2c0,0.1,0.1,0.2,0.1,0.2c0,0,0.1,0.1,0.1,0.1
				c0,0,0.1,0.1,0.1,0.1c0,0.1,0.1,0.1,0.1,0.2c0.1,0.1,0.1,0.1,0.2,0.2c0.1,0.1,0.1,0.1,0.2,0.1c0.1,0,0.1,0.1,0.2,0.1
				c0.1,0,0.2,0.1,0.2,0.1c0.1,0,0.1,0,0.2,0.1c0.1,0,0.2,0,0.2-0.1c0,0,0,0,0.1-0.1c0,0,0-0.1,0-0.1c0-0.1-0.1-0.2-0.1-0.2
				c0-0.1-0.1-0.1-0.1-0.2c0-0.1-0.1-0.2-0.1-0.2c0-0.1-0.1-0.1-0.1-0.2c0-0.1-0.1-0.1-0.1-0.2c0-0.1,0-0.1,0-0.2c0-0.1,0-0.1,0-0.2
				c0-0.1,0-0.1,0-0.2c0-0.1,0-0.1,0-0.2c0-0.1,0-0.2,0.1-0.3c0-0.1,0.1-0.2,0.1-0.2c0,0,0.1-0.1,0.1-0.1c0-0.1,0.1-0.1,0.1-0.2
				c0.1,0,0.1-0.1,0.2-0.1c0.1,0,0.1-0.1,0.2-0.1c0.1,0,0.1-0.1,0.2-0.1c0,0,0,0,0,0c0,0.1,0.1,0.1,0.1,0.2c0,0.1,0.1,0.1,0.1,0.2
				c0.1,0.1,0.1,0.1,0.2,0.2c0.1,0.1,0.1,0.1,0.2,0.2c0.1,0,0.1,0.1,0.2,0.1c0.1,0,0.2,0.1,0.2,0.1c0.1,0,0.2,0.1,0.2,0.1
				c0.1,0,0.2,0,0.3,0.1c0.1,0,0.2,0,0.3,0c0.1,0,0.2,0,0.3,0c0.1,0,0.2,0,0.3,0c0.1,0,0.2,0,0.2-0.1c0.1,0,0.2-0.1,0.3-0.1
				c0.1,0,0.2-0.1,0.2-0.1c0.1,0,0.2-0.1,0.2-0.1c0.1-0.1,0.1-0.1,0.2-0.2c0,0,0.1-0.1,0.1-0.1c0,0,0.1-0.1,0.1-0.1
				c0-0.1,0.1-0.1,0.1-0.2c0.1-0.1,0.1-0.1,0.1-0.2c0-0.1,0.1-0.1,0.1-0.2c0-0.1,0.1-0.1,0.1-0.2c0-0.1,0.1-0.2,0.1-0.2
				c0-0.1,0-0.1,0-0.2c0-0.1,0-0.2-0.1-0.2c0,0-0.1,0-0.1,0c0,0-0.1,0-0.1,0c-0.1,0-0.1,0.1-0.2,0.1c-0.1,0-0.1,0.1-0.2,0.2
				c-0.1,0-0.1,0.1-0.2,0.1c-0.1,0-0.1,0.1-0.2,0.1c-0.1,0-0.1,0.1-0.2,0.1c-0.1,0-0.1,0-0.2,0.1c-0.1,0-0.1,0-0.2,0
				c-0.1,0-0.1,0-0.2,0c-0.1,0-0.1,0-0.2,0c-0.1,0-0.2,0-0.3-0.1c-0.1,0-0.2-0.1-0.2-0.1c-0.1,0-0.1-0.1-0.2-0.1
				c-0.1,0-0.1-0.1-0.2-0.1c0,0-0.1-0.1-0.1-0.1c-0.1,0-0.1-0.1-0.2-0.2c0,0,0,0,0,0c0.1,0,0.2-0.1,0.2-0.1c0.1-0.1,0.1-0.1,0.2-0.2
				c0.1-0.1,0.1-0.1,0.2-0.2c0.1-0.1,0.1-0.1,0.2-0.2c0.1-0.1,0.1-0.2,0.1-0.2c0-0.1,0.1-0.1,0.1-0.2c0-0.1,0.1-0.2,0.1-0.2
				c0-0.1,0-0.2,0-0.3c0-0.1,0-0.2,0-0.3c0-0.1,0-0.2,0-0.3c0-0.1,0-0.2,0-0.3c0-0.1,0-0.2-0.1-0.3c0-0.1-0.1-0.2-0.1-0.2
				c0-0.1-0.1-0.2-0.1-0.2c0-0.1-0.1-0.1-0.1-0.2c0-0.1-0.1-0.1-0.2-0.2c-0.1-0.1-0.1-0.1-0.2-0.2c0,0-0.1-0.1-0.1-0.1
				c-0.1,0-0.1-0.1-0.2-0.1c-0.1,0-0.1-0.1-0.2-0.1c-0.1,0-0.2-0.1-0.2-0.1c-0.1,0-0.1-0.1-0.2-0.1c-0.1,0-0.2,0-0.2,0
				c-0.1,0-0.2,0-0.2,0c-0.1,0-0.1,0-0.2,0c-0.1,0-0.2,0.1-0.2,0.1c0,0,0,0.1,0,0.1c0,0,0,0.1,0,0.1c0,0.1,0.1,0.1,0.2,0.2
				c0.1,0.1,0.1,0.1,0.2,0.2c0.1,0.1,0.1,0.1,0.2,0.2c0,0.1,0.1,0.1,0.1,0.2c0,0.1,0.1,0.1,0.1,0.2c0,0.1,0.1,0.1,0.1,0.2
				c0,0.1,0.1,0.1,0.1,0.2c0,0.1,0,0.1,0,0.2c0,0.1,0,0.1,0,0.2c0,0.1,0,0.2,0,0.3c0,0.1,0,0.2-0.1,0.3c0,0.1,0,0.1-0.1,0.2
				c0,0.1-0.1,0.1-0.1,0.2c0,0.1-0.1,0.1-0.1,0.2c0,0-0.1,0.1-0.1,0.1c0,0,0,0,0-0.1c0-0.1-0.1-0.1-0.1-0.2
				c-0.1-0.1-0.1-0.1-0.2-0.2c-0.1-0.1-0.1-0.1-0.2-0.2c-0.1,0-0.1-0.1-0.2-0.1c-0.1,0-0.1-0.1-0.2-0.1c-0.1,0-0.2,0-0.2-0.1
				c-0.1,0-0.2-0.1-0.3-0.1c-0.1,0-0.2,0-0.3,0c-0.1,0-0.2,0-0.3,0c-0.1,0-0.2,0-0.3,0c-0.1,0-0.2,0-0.3,0c-0.1,0-0.2,0-0.2,0.1
				c-0.1,0-0.2,0.1-0.2,0.1c-0.1,0-0.2,0.1-0.2,0.1c-0.1,0.1-0.1,0.1-0.2,0.2c0,0-0.1,0.1-0.1,0.1c0,0-0.1,0.1-0.1,0.1
				c0,0.1-0.1,0.1-0.1,0.2c-0.1,0.1-0.1,0.1-0.1,0.2c0,0.1-0.1,0.1-0.1,0.2C105.6,33.9,105.6,34,105.6,34.1 M83.7,25.2
				c0,0-0.4,0-1,0c-0.6,0-1.4,0.1-2.3,0.4c-0.9,0.3-1.8,0.9-2.8,1.7v-2.1h-5v18.6h5v-9.7c0-0.4,0-0.8,0.2-1.2
				c0.1-0.4,0.4-0.9,0.8-1.4c0.6-0.7,1.3-1.1,2.1-1.2c0.8-0.1,1.5-0.1,2.1,0c0.6,0.1,0.9,0.2,0.9,0.3V25.2 M94.5,24.6
				c-1.3,0-2.5,0.3-3.7,0.8c-1.2,0.5-2.2,1.2-3.2,2.2c-0.9,0.9-1.6,2-2.1,3.2c-0.5,1.2-0.7,2.4-0.7,3.8c0,1.3,0.2,2.6,0.7,3.8
				c0.5,1.2,1.2,2.2,2.1,3.2c0.9,0.9,2,1.7,3.2,2.2c1.2,0.5,2.4,0.7,3.7,0.7c1.5,0,2.8-0.3,4.1-0.9c1-0.4,1.8-1.1,2.6-1.8
				c-0.5-0.6-1-1.2-1.4-1.9c-0.5-0.8-0.8-1.7-1-2.7l-0.5,0.7c-0.5,0.6-1,1.1-1.7,1.4c-0.7,0.3-1.4,0.5-2.1,0.5
				c-0.6,0-1.2-0.1-1.8-0.4c-0.6-0.2-1.1-0.6-1.6-1.1c-0.4-0.5-0.8-1-1.1-1.6c-0.2-0.6-0.3-1.3-0.3-2c0-0.9,0.2-1.8,0.7-2.6
				c0.4-0.8,1-1.4,1.7-1.8c0.7-0.5,1.5-0.7,2.4-0.7c0.7,0,1.4,0.2,2,0.5c0.6,0.3,1.2,0.8,1.7,1.4l0.6,0.8c0.1-0.4,0.2-0.8,0.4-1.2
				c0.4-1.2,1.1-2.2,2-3.2c0,0,0.1-0.1,0.1-0.1c-0.8-0.9-1.8-1.6-2.9-2.1C97.2,25,95.9,24.7,94.5,24.6 M67.4,6.1
				c-0.3-0.2-0.7-0.4-1.1-0.5c-0.4-0.1-0.8-0.2-1.2-0.2c-0.2,0-0.3,0-0.5,0c-0.2,0-0.3,0.1-0.5,0.1c-0.6,0.1-1.1,0.4-1.5,0.7
				c-0.4,0.3-0.8,0.7-1.1,1.2c-0.3,0.5-0.5,1-0.6,1.6c-0.1,0.6-0.1,1.1,0.1,1.7c0.1,0.6,0.4,1.1,0.7,1.5c0.3,0.5,0.7,0.9,1.2,1.2
				c0.3,0.2,0.7,0.4,1.1,0.5c0.4,0.1,0.8,0.2,1.2,0.2c0.2,0,0.3,0,0.5,0c0.2,0,0.3-0.1,0.5-0.1c0.3-0.1,0.6-0.2,0.9-0.3
				c0.3-0.1,0.6-0.3,0.8-0.6h0c0.2-0.2,0.4-0.4,0.6-0.6c0.2-0.2,0.3-0.4,0.4-0.7l0.2-0.4l-1.9-0.9L67,11c-0.1,0.3-0.3,0.5-0.6,0.7
				c-0.2,0.2-0.5,0.3-0.8,0.4c-0.2,0.1-0.5,0.1-0.7,0c-0.2,0-0.5-0.1-0.7-0.2c-0.2-0.1-0.4-0.2-0.6-0.4c-0.2-0.1-0.3-0.3-0.4-0.5
				l6.2-1.5c0,0,0-0.1-0.1-0.4c0-0.2-0.1-0.5-0.2-0.9c-0.1-0.4-0.3-0.8-0.6-1.1C68.2,6.8,67.9,6.4,67.4,6.1 M64.4,7.7
				c0.4-0.1,0.8-0.2,1.1-0.1c0.3,0.1,0.6,0.2,0.9,0.4c0.3,0.2,0.4,0.4,0.5,0.6l-4,0.9c0-0.2,0.1-0.5,0.2-0.7
				c0.1-0.2,0.3-0.5,0.5-0.7C63.9,7.9,64.1,7.8,64.4,7.7 M48.3,15.5L48.3,15.5l-14,28.3H40l2.5-5.4h11.8l2.5,5.4h0l10,21.3l-4.5,9.1
				h6.5l1.1-2.4l1.1,2.4h6.5L73,65.1l4.5-9.6l-6,0l-1.6,3.3l-7.4-15h0L48.3,15.5 M44.4,34.2l3.9-8.3l3.9,8.3H44.4 M45.1,4h4V1.7
				H38.8V4h4v10h2.2V4 M54.7,5.5c-0.3,0.1-0.6,0.3-0.8,0.4c-0.2,0.2-0.3,0.3-0.4,0.4c-0.1,0.1-0.1,0.2-0.1,0.2V1.7h-2.2v12.2h2.2
				V9.8c0-0.4,0.1-0.8,0.2-1c0.1-0.3,0.3-0.5,0.4-0.7c0.2-0.2,0.3-0.3,0.5-0.4c0.2-0.1,0.5-0.2,0.9-0.2c0.3,0,0.6,0.1,0.9,0.2
				c0.3,0.2,0.4,0.4,0.5,0.8c0.1,0.3,0.1,0.8,0.1,1.3v4.1h2.2v-5c0-0.3,0-0.7-0.1-1.1c-0.1-0.4-0.3-0.8-0.5-1.2
				c-0.2-0.4-0.6-0.7-1-0.9c-0.4-0.2-1-0.4-1.7-0.4C55.3,5.3,55,5.3,54.7,5.5 M164.6,57.2c0,0-0.2-0.2-0.7-0.6
				c-0.5-0.4-1.2-0.7-2.2-1c-1-0.4-2.3-0.6-4-0.6c-0.9,0-1.8,0.1-2.7,0.3c-0.9,0.2-1.6,0.5-2.3,1c-0.4,0.3-0.7,0.6-1.1,0.9
				c-0.3,0.3-0.6,0.7-0.8,1.1c-0.2,0.4-0.4,0.8-0.5,1.2c-0.1,0.4-0.2,0.9-0.2,1.4c0,1.1,0.2,2.1,0.7,2.9c0.5,0.8,1.1,1.5,2,2
				c0.6,0.3,1.2,0.6,1.8,0.8c0.7,0.2,1.3,0.3,1.8,0.5c0.5,0.1,0.9,0.2,1.2,0.2c0.2,0,0.4,0.1,0.8,0.1c0.4,0.1,0.8,0.2,1.3,0.3
				c0.5,0.1,0.9,0.3,1.2,0.5c0.3,0.2,0.5,0.5,0.5,0.8c0,0.4-0.2,0.7-0.7,0.9c-0.4,0.3-0.9,0.4-1.5,0.5c-0.5,0.1-1,0.2-1.4,0.2
				c-1.2,0-2.2-0.2-3.1-0.6c-0.9-0.3-1.7-0.7-2.3-1.2c-0.6-0.5-1.1-0.9-1.5-1.2c-0.3-0.4-0.5-0.5-0.5-0.6v5.6c0,0,0.2,0.2,0.8,0.6
				c0.5,0.4,1.3,0.8,2.4,1.2c1.1,0.4,2.5,0.6,4.2,0.6c1,0,2-0.1,3-0.4c0.9-0.2,1.7-0.6,2.4-1c0.9-0.6,1.6-1.3,2.1-2.1
				c0.4-0.8,0.7-1.8,0.7-2.9c0-1-0.2-1.8-0.6-2.6c-0.4-0.7-1.1-1.4-2-1.9c-0.6-0.4-1.3-0.6-2-0.8c-0.7-0.2-1.5-0.4-2.2-0.5
				c-0.2,0-0.6-0.1-1-0.2c-0.5-0.1-1-0.2-1.5-0.3c-0.5-0.1-1-0.3-1.4-0.6c-0.4-0.3-0.6-0.6-0.6-1c0-0.4,0.2-0.6,0.6-0.8
				c0.4-0.2,0.7-0.3,1.2-0.4c0.4-0.1,0.8-0.1,1-0.1c1.2,0,2.3,0.2,3.1,0.5c0.9,0.3,1.6,0.7,2.2,1c0.6,0.4,1,0.7,1.2,1
				c0.3,0.3,0.4,0.4,0.4,0.5L164.6,57.2z"/>
		</g>
	</g>
</g>
</svg>
