<?xml version="1.0" encoding="utf-8"?>
<!-- Generator: Adobe Illustrator 29.8.2, SVG Export Plug-In . SVG Version: 9.03 Build 0)  -->
<svg version="1.0" id="Layer_1" xmlns="http://www.w3.org/2000/svg" xmlns:xlink="http://www.w3.org/1999/xlink" x="0px" y="0px"
	 viewBox="0 0 180 44.6" style="enable-background:new 0 0 180 44.6;" xml:space="preserve">
<style type="text/css">
	.st0{fill:none;}
	.st1{fill:#54C3F1;}
	.st2{fill:#0097E0;}
</style>
<g>
	<rect x="-2.5" y="-3.2" class="st0" width="185.6" height="51.3"/>
	<g>
		<g>
			<polygon class="st1" points="44,4.6 5.2,4.6 5.2,40.3 			"/>
			<g>
				<polygon points="24.6,4.6 5.2,4.6 5.2,22.4 				"/>
			</g>
		</g>
		<g>
			<polygon class="st2" points="98.1,12.3 93,32.5 102,32.5 107,12.3 			"/>
			<path class="st2" d="M76.4,12.3L64.9,32.5h5.9l1.9-3.4h4.9h3.3l0.6,3.4h8.7l-3.7-20.2H76.4z M77.7,24h-2l3.3-5.8L80,24H77.7z"/>
			<polygon class="st2" points="138.9,12.3 133.8,32.5 142.8,32.5 147.8,12.3 			"/>
			<polygon class="st2" points="134.9,12.3 125.7,12.3 118.1,18.9 119.7,12.3 111.2,12.3 106.1,32.5 114.7,32.5 116.4,25.6 
				121,32.5 131.3,32.5 123.7,22 			"/>
			<path class="st2" d="M57.4,12.3l-2.3,0H44l-5,20.2H50l4.4,0c6.2,0,12.3-4.6,12.3-11.7C66.7,12.6,57.4,12.3,57.4,12.3z M57.9,21.5
				c0,0-0.6,6.6-6.2,6.6H50h-1.5l2.8-10.9h2.9C55.2,17.2,58.2,17.4,57.9,21.5z"/>
			<polygon class="st2" points="169.1,12.3 166.2,24.2 162.2,12.3 152.3,12.3 147.2,32.5 153.4,32.5 156.4,20.5 160.4,32.5 
				170.3,32.5 175.3,12.3 			"/>
		</g>
	</g>
</g>
</svg>
