<?xml version="1.0" encoding="utf-8"?>
<!-- Generator: Adobe Illustrator 29.8.2, SVG Export Plug-In . SVG Version: 9.03 Build 0)  -->
<svg version="1.0" id="Layer_1" xmlns="http://www.w3.org/2000/svg" xmlns:xlink="http://www.w3.org/1999/xlink" x="0px" y="0px"
	 viewBox="0 0 106.7 44.6" style="enable-background:new 0 0 106.7 44.6;" xml:space="preserve">
<style type="text/css">
	.st0{fill:#00B0F0;}
</style>
<g id="Camada_x0020_1">
	<path class="st0" d="M48.4,21.6v13.7h3.2V21.6H48.4z M42.5,16.4h-3.3c-0.4,0-0.3,0.3-0.3,0.3c0.1,0.4,0.2,1.1,0.2,2.6
		c0,3.3-0.4,7.9-4,12.4l-0.2,0.3c0,0-2.2-15-2.2-15.3c0,0,0-0.3-0.3-0.3H29c-0.3,0-0.3,0.3-0.3,0.3c-0.1,1.7-1,16.2-11.6,18.5
		c2.2,0.2,5-0.5,7.3-1.9c2.9-1.8,4.9-4.5,5.5-7.6c0,0,1.3,8.1,1.4,9.9v0.1l-0.1,0.1c-3,1.6-6.3,2.4-9.7,2.4
		c-8.3,0-15.7-4.9-18.9-12.4c1.9,8.8,9.8,15.3,19,15.3c10.7,0,17.1-9,18.2-15.4c0,0,1.4,9.3,1.5,9.6h4.4c-0.1-0.4-3-18.3-3-18.6
		C42.9,16.8,42.9,16.5,42.5,16.4L42.5,16.4z M5.4,24.3c0-9.8,8.3-17.8,18.5-17.8c6.3,0,12.2,3.2,15.6,8.3C36.9,7.7,30,2.9,22.2,2.9
		C12.2,2.9,4,10.8,4,20.4C4,23,4.6,25.6,5.8,28C5.5,26.8,5.4,25.5,5.4,24.3L5.4,24.3z M82.4,23.6c-1.2-1.4-2.8-2.1-4.8-2.1
		c-2,0-3.7,0.6-5,1.9c-1.3,1.3-2,3-2,5c0,2.1,0.6,3.7,1.9,5c1.3,1.2,3.2,1.8,5.5,1.8c4.6,0,5.5-3.1,5.9-4.2l-1.2-0.4
		c-1,1.9-3.4,2-4.8,1.9c-1-0.1-1.9-0.4-2.6-0.9c-0.7-0.5-1.2-1.3-1.4-2.4L74,29h10.2C84.2,26.8,83.6,25,82.4,23.6L82.4,23.6z
		 M74.2,27.1c-0.2,0-0.2-0.2-0.2-0.2c0.1-0.8,0.4-1.4,1-2c0.6-0.6,1.6-1,2.6-1c0.9,0,1.7,0.3,2.3,0.8c0.5,0.5,0.9,1.1,1.1,2
		c0,0.1,0.1,0.4-0.2,0.4L74.2,27.1L74.2,27.1z M92.7,21.5c-3.9,0-5.3,2.4-5.7,3.5c0,0-0.2,0.4-0.2,0.4l1.3,0.4c0,0,0.8-2.4,4.1-2.2
		c3.3,0.1,2.9,2.9,2.9,3.3c-1.8-0.6-4.5-0.5-6.2,0.3c-2.2,1-2.5,3-2.4,4.4c0.1,2.2,2,3.7,4.5,3.8c2.2,0.1,3.2-0.4,4.1-1.3l0,1.3h2.9
		v-3.6v-4.4v-0.8v-0.6C98.2,24.2,97,21.5,92.7,21.5L92.7,21.5z M95.2,32.1c0,0.2-0.1,0.4-0.2,0.5c-0.6,0.3-1.7,0.6-3.2,0.6
		c-1.5-0.1-2.1-1.2-2.2-1.7c0-0.2-0.4-2.2,1.6-2.8c1.3-0.4,2.9-0.2,3.7,0.1c0.2,0.1,0.3,0.2,0.3,0.5V32.1L95.2,32.1z M51.4,16.4
		h-2.7c-0.4,0-0.3,0.4-0.3,0.4c0,0.4,0,2.5,0,2.9h3.3v-2.9C51.7,16.8,51.7,16.4,51.4,16.4L51.4,16.4z M67.8,16.4h-2.7
		c-0.3,0-0.3,0.3-0.3,0.3v5.6l-0.4-0.2c-0.4-0.2-0.9-0.4-1.3-0.5c-0.5-0.1-1-0.1-1.6-0.1c-2.2,0-3.9,0.6-5.2,1.9
		c-1.3,1.2-1.9,3-1.9,5.2c0,1.9,0.6,3.6,1.6,4.9c1.1,1.3,2.6,1.9,4.7,1.9c3,0,4.1-1.8,4.1-1.8v1.7h3.3v-3.2c0-3.6,0-15.3,0-15.3
		S68.1,16.4,67.8,16.4z M64.6,31.6c-0.3,0.3-0.7,0.5-1.2,0.7c-0.5,0.2-1.1,0.3-1.8,0.3c-1.1,0-2-0.4-2.6-1.1c-0.6-0.7-1-1.8-1-3.3
		c0-1.4,0.3-2.5,0.9-3.1c0.6-0.7,1.5-1,2.8-1c0.6,0,1.3,0.1,1.8,0.3c0.5,0.2,0.9,0.4,1.1,0.6c0.1,0.1,0.2,0.2,0.2,0.5v5.6
		C64.8,31.3,64.7,31.5,64.6,31.6L64.6,31.6z"/>
	<path class="st0" d="M100.1,14.1c-1.1,0-2,0.9-2,2c0,1.1,0.9,2,2,2s2-0.9,2-2C102.1,15,101.2,14.1,100.1,14.1z M100.1,14.4
		c1,0,1.7,0.8,1.7,1.7c0,1-0.7,1.7-1.7,1.7c-1,0-1.7-0.8-1.7-1.7C98.4,15.2,99.1,14.4,100.1,14.4z M99.7,16.3h0.5l0.6,1h0.3l-0.7-1
		c0.3-0.1,0.6-0.2,0.6-0.6c0-0.4-0.2-0.6-0.7-0.6h-0.9v2.3h0.3L99.7,16.3L99.7,16.3z M99.7,16v-0.8h0.5c0.3,0,0.6,0.1,0.6,0.4
		c0,0.4-0.3,0.4-0.7,0.4H99.7L99.7,16z"/>
</g>
</svg>
