<svg width="183" height="28" viewBox="0 0 183 28" fill="none" xmlns="http://www.w3.org/2000/svg">
<g clip-path="url(#clip0_28500_73520)">
<path d="M180.99 24.7697C179.52 26.3197 177.85 27.2397 175.75 27.6597C174.33 27.9497 173.1 28.0097 171.66 27.8597C169.76 27.6597 168.18 27.0497 166.65 25.8997C165.4 24.9597 164.5 23.9497 163.71 22.5997C163.1 21.5497 162.75 20.5697 162.55 19.3697C162.27 17.7097 162.35 16.2497 162.79 14.6297C163.79 10.9397 166.56 8.32967 170.3 7.54967C172.43 7.10967 174.33 7.14967 176.44 7.69967C177.95 8.08967 179.14 8.73967 180.28 9.79967C181 10.4697 181.51 11.1297 181.96 11.9997C182.49 13.0197 182.71 14.0197 182.65 15.1697H175.98C175.83 14.2797 175.41 13.5597 174.69 13.0197C173.76 12.3097 172.55 12.2497 171.56 12.8697C170.88 13.2897 170.43 13.8697 170.19 14.6397C169.61 16.4597 169.59 18.1597 170.1 19.9997C170.32 20.7697 170.68 21.3797 171.27 21.9397C171.94 22.5697 172.77 22.8397 173.68 22.6997C174.25 22.6197 174.71 22.3697 175.09 21.9397C175.49 21.4997 175.72 21.0197 175.82 20.4397C175.89 20.0297 175.93 19.6797 175.96 19.2597H182.99C183.13 21.3797 182.46 23.2397 181 24.7797" fill="black"/>
<path d="M161.4 0H154.1V5.15H161.4V0Z" fill="black"/>
<path d="M161.4 7.80078H154.1V27.3108H161.4V7.80078Z" fill="black"/>
<path d="M138.99 9.85914C139.95 9.01914 140.86 8.42914 142.02 7.88914C143.9 7.01914 145.79 6.87914 147.78 7.45914C149.92 8.07914 151.46 9.58914 152.13 11.7091C152.45 12.7291 152.59 13.6391 152.59 14.7091V27.2991H144.84V15.9791C144.84 15.5991 144.79 15.2791 144.68 14.9191C144.48 14.2691 144.05 13.7891 143.42 13.5191C142.05 12.9391 140.49 13.4491 139.73 14.7391C139.42 15.2791 139.27 15.8091 139.27 16.4291V27.2991H131.77V7.79914H138.81L138.97 9.85914" fill="black"/>
<path d="M52.7102 9.85914C53.6702 9.01914 54.5802 8.42914 55.7402 7.88914C57.6202 7.01914 59.5102 6.87914 61.5002 7.45914C63.6402 8.07914 65.1802 9.58914 65.8502 11.7091C66.1702 12.7291 66.3102 13.6391 66.3102 14.7091V27.2991H58.5602V15.9791C58.5602 15.5991 58.5102 15.2791 58.4002 14.9191C58.2002 14.2691 57.7702 13.7891 57.1402 13.5191C55.7702 12.9391 54.2102 13.4491 53.4502 14.7391C53.1402 15.2791 52.9902 15.8091 52.9902 16.4291V27.2991H45.4902V7.79914H52.5302L52.6902 9.85914" fill="black"/>
<path d="M98.6902 20.1291C99.2502 20.2291 99.7202 20.3391 100.25 20.5191C100.7 20.6691 101.01 21.0091 101.1 21.4791C101.2 21.9791 101.07 22.4591 100.71 22.8191C100.34 23.1891 99.9302 23.3991 99.4102 23.4791C98.7202 23.5891 98.1102 23.5291 97.4602 23.2991C97.1402 23.1891 96.8902 23.0391 96.6301 22.8291C96.2901 22.5491 96.0801 22.2291 95.9501 21.8091C95.8401 21.4591 95.8002 21.1391 95.8002 20.7691H88.6602V21.1891C88.6602 21.8591 88.7602 22.4291 89.0002 23.0591C89.3602 24.0091 89.8501 24.7391 90.5901 25.4291C91.5601 26.3291 92.5701 26.8991 93.8401 27.2591C96.4801 28.0091 98.8602 28.1591 101.57 27.7391C102.84 27.5391 103.89 27.1991 105.04 26.6091C105.55 26.3491 105.95 26.0791 106.39 25.7091C108.32 24.0891 109.04 21.6191 108.26 19.2191C107.97 18.3191 107.51 17.6191 106.79 16.9991C105.8 16.1491 104.81 15.5991 103.56 15.2391C103.29 15.1591 103.05 15.0891 102.78 15.0191C101.25 14.5891 99.9402 14.3091 98.3602 14.0791C97.9402 14.0191 97.5802 13.9491 97.1702 13.8491C96.9802 13.8091 96.8202 13.7491 96.6402 13.6691C96.2002 13.4691 96.0101 12.9491 96.2001 12.5191C96.2101 12.4991 96.2202 12.4791 96.2302 12.4491C96.4702 12.0291 96.8102 11.7491 97.2802 11.6191C98.0902 11.3891 98.8502 11.3991 99.6502 11.6791C100.42 11.9391 100.9 12.6491 100.87 13.4591H107.75C107.75 12.6091 107.62 11.8991 107.33 11.1091C107.04 10.2991 106.6 9.68913 105.93 9.15913C105.34 8.69913 104.79 8.37913 104.09 8.10913C103.41 7.84913 102.81 7.67913 102.09 7.55913C100.39 7.25913 98.9202 7.17913 97.1902 7.27913C96.2002 7.33913 95.3702 7.45913 94.4002 7.68913C93.1002 7.99913 92.0502 8.49913 91.0002 9.31913C90.1102 10.0191 89.5202 10.8391 89.1502 11.9091C88.9802 12.3891 88.9001 12.8291 88.8801 13.3391C88.8401 14.1891 88.9702 14.9191 89.2802 15.7191C89.8502 17.1491 90.8602 18.1591 92.2802 18.7191C93.0002 19.0091 93.6402 19.1991 94.4002 19.3491C95.9002 19.6591 97.1802 19.8991 98.6902 20.1591" fill="black"/>
<path d="M13.3 18.9H8.29V12.5H11.54C12.16 12.5 12.68 12.49 13.3 12.45C14.16 12.4 14.87 12.02 15.38 11.33C15.65 10.96 15.8 10.59 15.87 10.14C15.92 9.76 15.93 9.43 15.89 9.05C15.75 7.63 14.57 6.56 13.14 6.56H8.29V27.31H0V0H13.55C14.09 0 14.54 0.01 15.08 0.04C18.67 0.23 21.63 2.23 23.16 5.49C23.95 7.19 24.22 8.82 24.02 10.68C23.59 14.6 20.85 17.65 16.99 18.5C15.71 18.78 14.61 18.9 13.3 18.9Z" fill="black"/>
<path d="M122.09 7.43172C121.32 7.31172 120.66 7.26172 119.88 7.26172C119.1 7.26172 118.44 7.31172 117.67 7.43172C115.43 7.78172 113.61 8.68172 111.98 10.2517C110.23 11.9317 109.27 13.9217 109.05 16.3417C108.92 17.8217 109.03 19.1017 109.43 20.5417C110.04 22.7417 111.19 24.4417 113.01 25.8317C114.21 26.7517 115.39 27.3017 116.86 27.6217C117.9 27.8517 118.81 27.9517 119.88 27.9517C120.95 27.9517 121.85 27.8517 122.9 27.6217C124.37 27.3017 125.56 26.7517 126.75 25.8317L122.56 21.2617C121.89 22.7417 120.16 23.4017 118.68 22.7317C118 22.4217 117.51 21.9417 117.21 21.2617C116.93 20.6317 116.76 20.0617 116.66 19.3817C116.45 18.0117 116.48 16.8217 116.75 15.4617C116.89 14.7517 117.12 14.1817 117.52 13.5817C118.38 12.2717 120.15 11.9017 121.46 12.7617C121.8 12.9917 122.06 13.2417 122.28 13.5817C122.67 14.1817 122.91 14.7617 123.05 15.4617C123.32 16.8217 123.34 18.0117 123.14 19.3817C123.04 20.0617 122.87 20.6317 122.59 21.2617L126.78 25.8317C128.59 24.4417 129.74 22.7417 130.36 20.5417C130.76 19.1017 130.87 17.8317 130.74 16.3417C130.52 13.9217 129.56 11.9317 127.81 10.2517C126.18 8.68172 124.36 7.78172 122.12 7.43172" fill="black"/>
<path d="M87.8697 25.7794C87.7597 24.1694 87.6997 22.8094 87.6697 21.1994C87.6297 19.0794 87.5997 17.2894 87.5897 15.1794C87.5897 14.0394 87.4597 13.0694 87.1697 11.9694C86.7997 10.5194 85.9497 9.41942 84.6397 8.68942C83.8497 8.24942 83.1297 7.96942 82.2397 7.78942C79.4297 7.18942 76.9397 7.13942 74.1097 7.62942C73.3097 7.76942 72.6497 7.95942 71.9097 8.26942C70.1797 8.97942 68.9897 10.2894 68.4397 12.0694C68.2297 12.7494 68.1697 13.3694 68.2497 14.0794C68.2597 14.2094 68.2997 14.3194 68.3597 14.4394L74.9197 14.5994C74.8997 14.1794 74.9597 13.8294 75.0997 13.4394C75.3197 12.8394 75.7397 12.4194 76.3397 12.1994C77.2197 11.8794 78.0697 11.8594 78.9597 12.1594C79.5497 12.3494 79.9597 12.7794 80.1497 13.3694C80.2597 13.7394 80.2097 14.0994 79.9897 14.4194C79.7897 14.6994 79.5597 14.8794 79.2397 15.0094C79.0497 15.0794 78.8797 15.1394 78.6797 15.1894C77.7697 15.4394 76.9897 15.5994 76.0597 15.7594C75.3197 15.8794 74.6997 15.9994 73.9697 16.1394C72.9797 16.3394 72.1497 16.5594 71.1797 16.8694C70.2997 17.1494 69.6097 17.5594 68.9197 18.1894C68.0297 18.9994 67.5297 19.9594 67.3597 21.1494C67.2497 21.9494 67.2697 22.6394 67.4497 23.4194C67.9097 25.4594 69.3197 26.9594 71.3297 27.5394C73.5497 28.1794 75.6397 28.0794 77.7797 27.2094C78.8197 26.7894 79.6197 26.2094 80.3397 25.3394L79.8797 21.9894C79.5497 22.4994 79.1397 22.8494 78.5797 23.0994C78.0597 23.3294 77.5897 23.4494 77.0197 23.5094C76.5497 23.5594 76.1397 23.5194 75.6797 23.3994C75.3097 23.2994 75.0197 23.1194 74.7597 22.8394C74.5397 22.5994 74.3997 22.3394 74.3397 22.0194C74.2397 21.5294 74.3997 21.0494 74.7797 20.7294C75.0397 20.5094 75.2897 20.3694 75.5997 20.2494C76.3597 19.9694 77.0097 19.7594 77.7897 19.5394C78.7297 19.2694 79.5097 18.9894 80.4097 18.5794C80.4997 19.2894 80.4897 19.9094 80.3897 20.6194C80.3197 21.1394 80.1597 21.5694 79.8697 22.0094L80.3297 25.3594C80.4697 25.8394 80.6097 26.2294 80.7697 26.6994C80.8597 26.9594 80.9797 27.1594 81.1597 27.3694H88.3897C88.0797 26.8794 87.9297 26.4094 87.8897 25.8294" fill="black"/>
<path d="M44.0699 25.7794C43.9599 24.1694 43.8999 22.8094 43.8699 21.1994C43.8299 19.0794 43.7999 17.2894 43.7899 15.1794C43.7899 14.0394 43.6599 13.0694 43.3699 11.9694C42.9999 10.5194 42.1499 9.41942 40.8399 8.68942C40.0499 8.24942 39.3299 7.96942 38.4399 7.78942C35.6299 7.18942 33.1399 7.13942 30.3099 7.62942C29.5099 7.76942 28.8499 7.95942 28.1099 8.26942C26.3799 8.97942 25.1899 10.2894 24.6399 12.0694C24.4299 12.7494 24.3699 13.3694 24.4499 14.0794C24.4699 14.2094 24.4999 14.3194 24.5599 14.4394L31.1199 14.5994C31.0999 14.1794 31.1599 13.8294 31.2999 13.4394C31.5099 12.8394 31.9399 12.4194 32.5399 12.1994C33.4199 11.8794 34.2699 11.8594 35.1599 12.1594C35.7499 12.3494 36.1599 12.7794 36.3499 13.3694C36.4599 13.7394 36.4099 14.0994 36.1899 14.4194C35.9899 14.6994 35.7599 14.8794 35.4399 15.0094C35.2499 15.0794 35.0799 15.1394 34.8799 15.1894C33.9699 15.4394 33.1899 15.5994 32.2599 15.7594C31.5199 15.8794 30.8999 15.9994 30.1699 16.1394C29.1799 16.3394 28.3499 16.5594 27.3799 16.8694C26.4999 17.1494 25.8099 17.5594 25.1199 18.1894C24.2399 18.9994 23.7299 19.9594 23.5599 21.1494C23.4499 21.9494 23.4699 22.6394 23.6499 23.4194C24.1099 25.4594 25.5199 26.9594 27.5299 27.5394C29.7499 28.1794 31.8399 28.0794 33.9799 27.2094C35.0199 26.7894 35.8199 26.2094 36.5399 25.3394L36.0799 21.9894C35.7499 22.4994 35.3399 22.8494 34.7799 23.0994C34.2599 23.3294 33.7899 23.4494 33.2199 23.5094C32.7499 23.5594 32.3399 23.5194 31.8799 23.3994C31.5099 23.2994 31.2199 23.1194 30.9599 22.8394C30.7399 22.5994 30.5999 22.3394 30.5399 22.0194C30.4399 21.5294 30.5999 21.0494 30.9799 20.7294C31.2399 20.5094 31.4899 20.3694 31.7999 20.2494C32.5599 19.9694 33.2099 19.7594 33.9899 19.5394C34.9299 19.2694 35.7099 18.9894 36.6099 18.5794C36.6999 19.2894 36.6899 19.9094 36.5899 20.6194C36.5199 21.1394 36.3599 21.5694 36.0699 22.0094L36.5299 25.3594C36.6699 25.8394 36.7999 26.2294 36.9699 26.6994C37.0599 26.9594 37.1799 27.1594 37.3599 27.3694H44.5899C44.2799 26.8794 44.1299 26.4094 44.0899 25.8294" fill="black"/>
</g>
<defs>
<clipPath id="clip0_28500_73520">
<rect width="183" height="27.96" fill="white"/>
</clipPath>
</defs>
</svg>
