<?xml version="1.0" encoding="utf-8"?>
<!-- Generator: Adobe Illustrator 29.8.2, SVG Export Plug-In . SVG Version: 9.03 Build 0)  -->
<svg version="1.0" id="Layer_1" xmlns="http://www.w3.org/2000/svg" xmlns:xlink="http://www.w3.org/1999/xlink" x="0px" y="0px"
	 viewBox="0 0 180 44.6" style="enable-background:new 0 0 180 44.6;" xml:space="preserve">
<style type="text/css">
	.st0{fill:#1828A4;}
</style>
<g transform="translate(-250 -7)">
	<path class="st0" d="M257.6,35.2v-1.9h6.4v2.4c0,1.2,0.9,2.2,2.1,2.2c0.1,0,0.2,0,0.3,0c1.1,0.1,2.1-0.6,2.3-1.7
		c0.2-0.6,0.2-1.2,0-1.8c-1.2-3.2-9.6-4.6-10.7-9.6c-0.2-1.1-0.2-2.2,0-3.3c0.7-4,4.1-5.4,8.3-5.4c3.4,0,8,0.8,8,6.2V24h-5.9v-1.5
		c0.1-1.1-0.8-2.1-1.9-2.2c-0.1,0-0.2,0-0.3,0c-1-0.1-2,0.6-2.2,1.7c-0.1,0.4-0.1,0.9,0,1.3c0.7,2.8,9.7,4.4,10.7,9.5
		c0.2,1.3,0.3,2.7,0,4c-0.6,4.1-4.1,5.6-8.4,5.6C261.8,42.4,257.6,40.7,257.6,35.2z M334.7,35.2v-1.9h6.3v2.3
		c-0.1,1.2,0.8,2.2,2,2.2c0.1,0,0.2,0,0.3,0c1.1,0.2,2.1-0.6,2.3-1.6c0.2-0.6,0.2-1.2,0-1.8c-1.2-3.1-9.5-4.6-10.6-9.5
		c-0.2-1.1-0.2-2.2,0-3.3c0.7-3.9,4.1-5.4,8.2-5.4c3.3,0,7.9,0.8,7.9,6.1v1.7h-5.9v-1.5c0.1-1.1-0.8-2.1-1.9-2.2c-0.1,0-0.2,0-0.3,0
		c-1-0.1-2,0.6-2.1,1.6c-0.1,0.4-0.1,0.9,0,1.3c0.7,2.8,9.6,4.3,10.5,9.4c0.2,1.3,0.3,2.7,0,4c-0.6,4.1-4.1,5.6-8.3,5.6
		C338.8,42.2,334.7,40.5,334.7,35.2z M357.2,36.1c-0.1-0.5-0.1-1.1,0-1.6V16.9h6V35c0,0.3,0,0.6,0,0.9c0.3,1.2,1.6,2,2.8,1.7
		c0.8-0.2,1.5-0.9,1.7-1.7c0-0.3,0-0.6,0-0.9V16.9h6v17.6c0,0.5,0,1.4,0,1.6c-0.4,4.6-3.9,6.1-8.2,6.1
		C361.1,42.1,357.6,40.6,357.2,36.1L357.2,36.1z M406.5,35.8c-0.1-0.5-0.1-1.1-0.1-1.6V23.9c0-0.4,0-1.2,0.1-1.6
		c0.5-4.6,4.1-6,8.3-6c4.2,0,7.9,1.4,8.3,6c0,0.5,0.1,1.1,0,1.6v0.8h-6v-1.4c0-0.3,0-0.6-0.1-0.9c-0.4-1.3-1.7-2.1-3-1.7
		c-0.8,0.2-1.5,0.9-1.7,1.7c-0.1,0.4-0.1,0.8-0.1,1.1v11.2c0,0.3,0,0.6,0,0.9c0.3,1.1,1.3,1.9,2.5,1.8c1.1,0.1,2.2-0.7,2.4-1.8
		c0.1-0.3,0.1-0.6,0-0.9v-3.6h-2.4v-3.6h8.4v6.6c0,0.5,0,1.1-0.1,1.6c-0.4,4.5-4.1,6-8.3,6S406.9,40.3,406.5,35.8z M323,41.4
		l-0.2-22.6l-4.1,22.6h-6l-4.1-22.6l-0.2,22.6h-5.9l0.5-24.4h9.6l3,19.1l3-19.1h9.6l0.5,24.4L323,41.4z M291.5,41.4l-3.2-22.6
		L285,41.4h-6.4l4.3-24.4h10.5l4.3,24.4L291.5,41.4z M391.7,41.1l-6-20.3l0.3,20.3h-5.8V16.9h8.8l5.6,19.7l-0.3-19.7h5.9v24.2H391.7
		z"/>
</g>
</svg>
