<?xml version="1.0" encoding="UTF-8"?>
<svg id="Layer_1" xmlns="http://www.w3.org/2000/svg" width="100" height="42" version="1.1" viewBox="0 0 100 42">
  <!-- Generator: Adobe Illustrator 29.4.0, SVG Export Plug-In . SVG Version: 2.1.0 Build 152)  -->
  <defs>
    <style>
      .st0 {
        fill: #b11116;
      }

      .st1 {
        fill: #dcb91c;
        fill-rule: evenodd;
      }
    </style>
  </defs>
  <g>
    <path class="st0" d="M35.4,35.9V8.9h10.2c4.1,0,7.1.6,9.1,1.7,1.9,1.1,2.9,2.9,2.9,5.3s-.5,2.9-1.4,3.9-2.4,1.7-4.3,2.2c2.2.4,3.9,1.1,4.9,2.2,1.1,1.1,1.6,2.5,1.6,4.4s-.9,4.3-2.6,5.6-4.4,1.8-7.9,1.8h-12.3ZM42.7,19.8h2.9c1.6,0,2.8-.2,3.5-.7s1.1-1.3,1.1-2.3-.4-1.7-1.2-2.3c-.8-.5-1.9-.7-3.5-.7h-2.9v6.1h0ZM42.7,31h2.9c1.8,0,3.1-.3,3.9-.8.8-.5,1.2-1.4,1.2-2.5s-.4-1.9-1.2-2.4-2.1-.8-3.9-.8h-2.9v6.5h0Z"/>
    <path class="st0" d="M61.6,35.9V8.9h12.4c3.5,0,6.2.7,8,2.2,1.8,1.5,2.7,3.6,2.7,6.4s-.9,4.9-2.7,6.5-4.3,2.3-7.5,2.3h-5.4v9.6h-7.5s0,0,0,0ZM69.1,21h3.3c1.6,0,2.8-.3,3.6-.9s1.1-1.5,1.1-2.7-.4-2.1-1.1-2.6-1.9-.8-3.6-.8h-3.3v7.1h0Z"/>
    <path class="st0" d="M88,35.9V8.9h7.5v27.1h-7.5Z"/>
    <path class="st1" d="M.2,31.7c.2.6.7,1.2,1.5,1.8,1.1.9,9.5,6.4,12,8.1l.6.4.5-.3c.4-.3,10.6-7.2,11.8-8.2.7-.6,1.2-1.2,1.5-1.8.4-1,.2-1.8.1-2.4h0c0-.3-1.7-10.3-2.6-15.1-3.6-.6-7.4-.9-11.2-.9h-.3v25.9c-5.1-3.3-10-6.6-10.9-7.2-.5-.4-.8-.7-.9-1.1-.2-.5-.1-1,0-1.4,0-.3,1.8-11,2.7-15.6-.8,0-1.4.2-2.2.3C2,19.2.2,29,.1,29.3c-.1.6-.3,1.4.1,2.4ZM6.9,18.1h.9v.8h.8v-.8h.9v.8h.7v-.8h.9v2h-4.3v-2h0ZM7.6,20.5h2.9l1,8h-4.9l1-8h0ZM6,28.8h5.9v2h-1.6v-.5h-2.7v.5h-1.6v-2h0,0ZM8.4,24.8h1.4v-.5h-1.4s0,.5,0,.5ZM9.7,22.7h-1.4v.5h1.4v-.5ZM8.3,26.4h1.4v-.5h-1.4v.5ZM7.5,10.2c-.6,0-.9.1-1.5.3,0,.4-.2,1.3-.4,2,2.8-.4,5.7-.6,8.7-.6s5.5.2,8.2.6c-.1-.7-.3-1.5-.4-2-.4-.1-.8-.2-1.4-.3,1.9-.4,3-1.8,3-3s-1.3-3-4.6-3.3c-1.2-.9-2.8-1.3-4.1-1.4.3-.2.6-.7.6-1.1,0-.7-.7-1.4-1.5-1.4s-1.5.6-1.5,1.4.2.9.6,1.1c-1.4.1-3,.5-4.1,1.4-3.2.3-4.6,1.7-4.6,3.3s1.2,2.6,3,3h0ZM19.8,4.9s2.5.2,2.4,2.4c0,1.7-1.9,2.6-4.2,2.3,3.2-1.3,2.5-3.8,1.8-4.7ZM14.8,3.6c2.1.2,3.7,1.5,3.7,3.1s-1.7,2.9-3.8,3.1c.4-.6.7-1.7.7-3.1,0-1.3-.2-2.4-.6-3h0ZM13.3,3.6c-.4.6-.6,1.7-.6,3s.3,2.6.7,3.1c-2.1-.2-3.8-1.5-3.8-3.1s1.6-2.9,3.7-3.1h0ZM8.3,4.9c-.8.9-1.5,3.4,1.8,4.7-2.3.3-4.2-.6-4.2-2.3,0-2.1,2.4-2.4,2.4-2.4ZM20.5,32.5c0,0,0-.2,0-.3.2,0,.3,0,.5,0,.3-.2.3-.8.6-1,.1,0,.2,0,.3.1,0-.2,0-.5.2-.7.3-.6.8-.9.6-2,0,0,0,0,0,0,0,.1-.1.2-.2.4-.8,0-.5-1.8,0-2,.4,1,2,1.4,2.1,0,0-.3-.2-.7-.5-1.1.1-.4.3-.8.4-1,0-.1-.4.1-.7.6.1-.5.3-.9.5-1.1,0-.1-.4,0-.7.5.1-.5.3-.8.5-1.1,0-.1-.5.1-.7.7,0-.3-.1-.5-.1-.8,0-.7.2-2,.5-3,0-.3.2-.9.7-1.1-.3,0-.9.2-.9.9,0-1-.8-1.3-1.2-1.4,1.2,1,.2,3.4.2,4.6,0,1.4,1.7,2.9,1.4,3.4-.4.7-1.1-.7-1.3-1.1-.2-.4-1-1.2-1.6-1.7.3-.2.7-.8.7-1.5,0,0,.1.1.2.2h0c0-.6.2-1.2,0-1.7h.3c0-2.6-2-2.1-2.9-1.8,0,0,0,0,0,.1.1,0,.2,0,.4,0h0c0,0-.2,0-.3.1,0,.2,0,.6.2.8,0-.2,0-.3.3-.4.2.1.4.5.2.9-.2,0-.3,0-.4-.2h0c0,.4,0,.8.2,1,0-.3.1-.5.4-.4,0,.8-.6.6-1.1.8-1,.4-1.2,1.9-2.1,2.1,0,.4.4.6.7.8-.1.2-.7,1-.9,1,0-.1-.2-.3-.3-.3-.2,0-.3,0-.5.1,0,0,0,.1,0,.2,0,0,.1,0,.2,0,0,0,0,.2,0,.3.1,0,.3,0,.4,0,0,0,0,0,0,0-.1,0-.3,0-.4,0,0,0-.3.4-.3.6h0c0,0,0,0,.1,0,0,0,0,0,.1.2,0,0,0,0,0,0,.1-.1.2-.2.4-.3h0s0,0,0,0c-.1.1-.2.2-.3.3,0,.2,0,.4,0,.7,0,0,.1-.1.2-.2.3.3.5,0,.6-.4,0,0,.2.1.3.1,0,0,0,.1,0,.2h0c.5-.4-.1-.8.4-1.4.3.2.4.1.7,0,0,0,0-.1.1-.2-.1,0-.2-.1-.3-.3,0,0,0-.1,0-.2.1-.2.5-.2.7-.1.6.2.9.8,1.4,1.2,0,.5,0,1.2,0,1.7.1.5.5.7.4,1.4.2,0,.3-.1.4-.3,0,0,.2,0,.3,0-.2.4-.6,1.2-1.1,1.3-.4.1-.6-.4-.9-.3l-.2.2c-.2,0-.2,0-.3.2h0c0,0,.1,0,.2,0,0,0,0,.2,0,.3.1-.1.2-.2.3-.4,0,0,0,0,0,0-.2.1-.3.4-.4.6,0,.1,0,.3,0,.4,0,0,0,.1,0,0,0,0,0-.1.1-.2h0s0,0,0,.1h0c0-.2,0-.4.1-.6h0s0,0,0,0c-.1.3-.2.7,0,1,0,0,0,0,0,0,0,0,0-.1,0-.2,0,0,.1,0,.3,0,0-.3,0-.5.1-.6-.1.3,0,.6,0,.9,0,0,0,.1.1.1M20.2,19.6v-.3c.2,0,.5,0,.7,0-.2,0-.4.2-.7.3ZM20.7,29.3h0c-.2-.2-1-1.1-.7-1.7,0-.3.4-.2.5,0,0-.2,0-.3,0-.5-.1-.2-.5-.3-.4-.7-1-.8-.9.5-1.7.5,0,.3.2.5.4.5,0,.6.2,1.1.5,1.3,0,0,0,0,0,0-.4,0-.8.1-1.1-.1-.3-.3-.4-.7-1-.6h0s0,.1,0,.2c0,0,0,.1,0,.2h0c.1,0,.2,0,.3.1h0c-.3,0-.6,0-.7.4h0s.2,0,.2,0c0,0,0,.2.1.3.1-.1.2-.3.3-.4h0c0,.4-.4.4-.4.9h0c0,0,.1,0,.2,0,0,0,.1.1.2.2,0,0,.1-.3.1-.4h0c0,.3-.2.6,0,.8,0,0,0,0,0,.1,0,0,0-.2,0-.2.1,0,.2,0,.4,0,.2,0,.2-.4.5-.4,0,0,.1.1.1.4.2,0,.3-.3.5-.3.6-.2.8,0,1.2-.4h0ZM19.1,20.9c.4,0,.6-.5,1-.5h0c-.1,0-.2,0-.3,0-.2,0-1.2.6-.8-.2-.3.1-.4.9.1.8ZM16.1,23h0c0,.1.3.1.5.1,0,0,.1-.2.2-.3h0c.2.3.4.5.6.8h0c.2-.2.4-.5.5-.7,0-.4-.5-.6-.6-1-.1-.4.3-1-.3-1.4,0,.2,0,.3-.1.4,0,.1,0,.3,0,.4h0c0,0,0,0,0,0,0,0,0-.2-.1-.4,0-.1-.4-.3-.5-.4h0c0,.2,0,.3,0,.4,0,.1.2.3.2.4h0c0,0,0,0,0,0,0,0-.2-.2-.3-.3-.1,0-.4,0-.5,0,0,0,.1.1.2.2.1.2.7.9.1,1.4h0ZM19.8,17.6c.2-.1.4-.2.6-.2,0,0,0,0,0-.2s.1-.2.2-.2.2,0,.2.2,0,.1,0,.2c.2,0,.5,0,.6.2.5,0,.7.3.7.5s-.2.4-.6.5c0,0,0,.2,0,.2-.2,0-.6,0-.9,0s-.7,0-.9,0c0,0,0-.1,0-.2-.4,0-.6-.3-.6-.5,0-.3.2-.5.7-.5h0ZM21.9,18.2c0-.3-.4-.3-.4-.3.1.1.2.5-.3.6.3,0,.6,0,.6-.3ZM21.3,18.1c0-.2-.3-.4-.6-.4,0,0,0,.2,0,.4s0,.4-.1.4c.3,0,.6-.2.6-.4h0ZM20.5,18.5c0,0-.1-.2-.1-.4s0-.3,0-.4c-.3,0-.6.2-.6.4s.3.4.6.4h0ZM20,18.5c-.5-.2-.4-.5-.3-.7,0,0-.4,0-.4.3,0,.3.3.4.6.3Z"/>
  </g>
  <g>
    <path class="st0" d="M98.9,11.1l-.3-.5h-.4v.5h-.3v-1.6h.6c.1,0,.3,0,.4,0,.1,0,.2.1.2.2s0,.2,0,.3,0,.2,0,.3-.1.1-.2.2l.4.5h-.3ZM98.8,9.8c0,0-.2,0-.3,0h-.3v.6h.3c.1,0,.2,0,.3,0s.1-.1.1-.2,0-.2-.1-.2h0Z"/>
    <path class="st0" d="M98.5,11.8c-.8,0-1.5-.7-1.5-1.5s.7-1.5,1.5-1.5,1.5.7,1.5,1.5-.7,1.5-1.5,1.5ZM98.5,9c-.7,0-1.3.6-1.3,1.3s.6,1.3,1.3,1.3,1.3-.6,1.3-1.3-.6-1.3-1.3-1.3Z"/>
  </g>
</svg>