<?xml version="1.0" encoding="utf-8"?>
<!-- Generator: Adobe Illustrator 29.8.2, SVG Export Plug-In . SVG Version: 9.03 Build 0)  -->
<svg version="1.0" id="Layer_1" xmlns="http://www.w3.org/2000/svg" xmlns:xlink="http://www.w3.org/1999/xlink" x="0px" y="0px"
	 viewBox="0 0 125 45" style="enable-background:new 0 0 125 45;" xml:space="preserve">
<style type="text/css">
	.st0{fill:#010101;}
	.st1{fill:#ED2024;}
</style>
<polygon class="st0" points="58.8,33.7 57.4,33.7 57.4,40 61.3,40 61.3,38.7 58.8,38.7 "/>
<g>
	<path class="st0" d="M67.6,38.8c-1.2,0-2-0.9-2-2c0-1.2,0.8-2,2-2s2,0.9,2,2C69.5,38,68.7,38.8,67.6,38.8 M67.6,33.5
		c-2,0-3.4,1.3-3.4,3.3s1.4,3.3,3.4,3.3s3.4-1.3,3.4-3.3C70.9,34.8,69.5,33.5,67.6,33.5"/>
	<path class="st0" d="M77.5,37.5h1.1v1c-0.3,0.1-0.7,0.3-1.3,0.3c-1.2,0-2-0.9-2-2s0.8-2,2-2c0.7,0,1.2,0.2,1.5,0.6l1-1.1
		c-0.6-0.6-1.5-0.8-2.5-0.8c-2,0-3.4,1.3-3.4,3.3s1.4,3.3,3.4,3.3c0.9,0,1.8-0.2,2.6-0.6v-3.3h-2.5L77.5,37.5L77.5,37.5z"/>
</g>
<rect x="83.5" y="33.7" class="st0" width="1.4" height="6.3"/>
<path class="st0" d="M89.7,35.4c0-0.5,0.5-0.6,0.9-0.6c0.3,0,0.8,0.1,1,0.4l1-1c-0.5-0.5-1.2-0.7-1.9-0.7c-1.2,0-2.4,0.7-2.4,2
	c0,2.1,2.9,1.5,2.9,2.6c0,0.4-0.5,0.7-1,0.7s-0.9-0.2-1.2-0.6l-1,1.1c0.6,0.6,1.3,0.8,2.1,0.8c1.3,0,2.4-0.7,2.4-2.1
	C92.6,35.8,89.7,36.6,89.7,35.4"/>
<polygon class="st0" points="95.5,34.9 97.3,34.9 97.3,40 98.6,40 98.6,34.9 100.4,34.9 100.4,33.7 95.5,33.7 "/>
<rect x="103.5" y="33.7" class="st0" width="1.4" height="6.3"/>
<g>
	<path class="st0" d="M111.4,38.8c-1,0-1.8-0.9-1.8-2c0-1.2,0.8-2,1.8-2c0.5,0,0.9,0.2,1.2,0.5l1.1-0.9c-0.5-0.7-1.4-0.9-2.1-0.9
		c-2,0-3.4,1.3-3.4,3.3s1.4,3.3,3.4,3.3c0.9,0,1.7-0.3,2.3-1.1l-1.2-0.9C112.4,38.6,112,38.8,111.4,38.8"/>
	<path class="st0" d="M118.2,35.4c0-0.5,0.5-0.6,0.9-0.6c0.3,0,0.8,0.1,1,0.4l1-1c-0.5-0.5-1.2-0.7-1.9-0.7c-1.2,0-2.4,0.7-2.4,2
		c0,2.1,2.9,1.5,2.9,2.6c0,0.4-0.5,0.7-1,0.7s-0.9-0.2-1.2-0.6l-1,1.1c0.6,0.6,1.3,0.8,2.1,0.8c1.3,0,2.4-0.7,2.4-2.1
		C121.1,35.8,118.2,36.6,118.2,35.4"/>
	<path class="st1" d="M121.1,28.1l-11-17.7l0,0v-0.1l-1.6-2.5c-0.1-0.2-0.2-0.4-0.4-0.5C107,5.8,105.3,5,103.4,5c0,0,0,0-0.1,0
		s-0.3,0-0.4,0c0,0,0,0-0.1,0c-1.9,0-3.6,0.9-4.7,2.3c-0.1,0.2-0.3,0.3-0.4,0.5l-1.6,2.5l-11,17.8h21.8l-5.6-22.8l14.2,22.8H121.1
		L121.1,28.1z"/>
	<path class="st0" d="M4.2,13.9v5.7c0,4.7,3.8,8.6,8.6,8.6h16.4v-4.7H12.7c-2.1-0.1-3.8-1.8-3.8-3.9v-5.7c0-2.1,1.7-3.8,3.8-3.8
		h16.4V5.3H12.7C8,5.3,4.2,9.2,4.2,13.9"/>
	<path class="st0" d="M88.3,5.3l-11.2,18c-0.3,0.5-0.8,0.6-1,0.6s-0.7-0.1-1-0.6l-10.9-18h-5.4l12.3,20.4c1.1,1.8,2.9,2.8,5,2.8
		c0,0,0,0,0.1,0c2,0,3.9-1,5-2.8L93.8,5.3H88.3z"/>
	<path class="st0" d="M36.7,13.9c0-2.1,1.7-3.8,3.8-3.8h10.6c2.1,0,2.1,1.9,2.1,2.1v0.3c0,0.4-0.1,2.1-2,2.1H36.7V13.9L36.7,13.9z
		 M57,23.4H40.5c-2.1,0-3.8-1.8-3.8-3.9v-0.2h14.4c4.4,0,6.9-3.5,6.9-6.7v-0.4l0,0c0-3.3-2.4-6.7-6.9-6.7H40.5
		c-4.7,0-8.6,3.8-8.6,8.6v5.6c0,4.7,3.8,8.7,8.6,8.7H57V23.4L57,23.4z"/>
</g>
</svg>
