<?xml version="1.0" encoding="utf-8"?>
<!-- Generator: Adobe Illustrator 29.8.2, SVG Export Plug-In . SVG Version: 9.03 Build 0)  -->
<svg version="1.0" id="Layer_1" xmlns="http://www.w3.org/2000/svg" xmlns:xlink="http://www.w3.org/1999/xlink" x="0px" y="0px"
	 viewBox="0 0 125 45" style="enable-background:new 0 0 125 45;" xml:space="preserve">
<style type="text/css">
	.st0{fill:#010101;}
</style>
<path class="st0" d="M109.9,22.8c0-1.2,4.1-1.6,4.1-1.6l-0.1-1.2c-0.6,0-2.9,0.1-2.9-0.6c0-0.8,3.5-1,4.8-1.1l-0.3-1.9
	c-2.1,0-11.8,0-12.2,2.6c-0.2,1.4,2.6,1.7,2.6,1.7v0.1c0,0-3.6,0.7-3.6,2.4c0,3.6,12.5,2.6,15.8,1.7c0,0-0.3-1.6-0.5-1.7
	c-0.1-0.1-2.8,0.3-4.8,0.3C111.1,23.7,109.9,23.4,109.9,22.8 M83.9,14.9c0,1-1.1,1.7-3.1,1.7c-1.9,0-3.1-0.7-3.1-1.7
	c0-1.2,1.7-1.8,3.1-1.8C82.1,13.2,83.9,13.8,83.9,14.9 M101.6,23.4c-0.2-0.1-1.3,0.2-2.5-0.2c-2-0.7-2.3-3.4,0.1-5l-2.3-1.9
	c-4,1.5-4.8,1.6-5.1,1.7c-0.2-0.5-1-1.4-2.9-1.3c-1,0.1-2.5,0.6-2.9,1.6c-0.3,0.7-0.1,1.5,0.6,2c1,0.8,2.8,0.6,2.8,0.6
	c-0.6,2.4-5.6,4.1-5.6,1.5V18h-6v5.2c0,2.6,3.2,3.2,6.3,3c4.3-0.3,6.8-2.8,7.7-5.5l2.1-0.5c0,0-2.9,3.8,0.7,5.5
	c2.1,1,5.9,0.2,7.4-0.6C101.9,25,101.7,23.4,101.6,23.4 M88,18.7c0-0.6,1.6-0.8,1.7-0.1C89.7,18.7,87.9,19.4,88,18.7 M77.1,23.8
	c-0.1-0.1-1.1,0.2-1.8,0c-0.8-0.2-0.9-0.8-0.9-1.6v-4.4h-6.1v4.1c0,0.5,0,1.7-1.7,1.7c-0.8,0-1.7-0.1-1.7-1.2v-4.6h-6.1V23
	c0,3,5,3.9,10.2,2c0,0,2.4,1.9,8.4,0.5C77.4,25.6,77.1,23.9,77.1,23.8 M57,28.5V17.7h-5.6c0,0,0.2,3.9-0.1,4.6
	c-0.5,1.6-4.5,1.4-4.5-0.5c0-2.2,4.1-1.8,4.1-1.8l-0.4-2.3c0,0-9.5-0.9-9.9,4.2c-0.1,3.5,6.2,5,10.8,3.3v4.2L57,28.5z"/>
<path class="st0" d="M38.8,23.4c0.6-0.6,0.5-1.3,0.1-2c-0.7-1.1-2.7-1.8-3.1-2.7c-0.2-0.4-0.2-0.9,0.1-1.4l-0.1-0.5l-6.6,0.7
	c-0.4,0.9,0,1.6,0,1.6c-4.7,5.1-12.4,5.1-12.6,3.3c-0.2-1.7,5.1-2.1,5.1-2.1l-0.1-1.7c0,0-3.5,0.3-3.6-0.8c-0.1-1.1,3.3-1.5,5.2-1.5
	l-0.5-2.7c-6.2-0.1-12,1.3-12.6,3.7c-0.2,0.8,0.3,2.1,2.8,2.6V20c0,0-5.4,0.9-5.4,3.2c0,2.1,4.7,3,8,3c6.7,0,10.2-2.2,10.2-2.2
	c-0.9,2.5,6.4,2.9,11.4,1c0.2-0.1,2.2,0.7,3.4,1.3c0,0,0.8-1.8,0.7-2.1C41,24,38.8,23.4,38.8,23.4 M32.3,24c-0.7,0.8-3.2,0.8-3,0.3
	C29.5,23.8,32,23.9,32.3,24 M27.4,23.2c0,0,1.5-1,3.1-2.4c0,0,1.4,0.8,2,1.7C32.5,22.6,30.3,22.2,27.4,23.2"/>
</svg>
