<svg id="Layer_1" data-name="Layer 1" xmlns="http://www.w3.org/2000/svg" viewBox="0 0 200 153.98"><defs><style>.cls-1{fill:#b2292e;}.cls-2{fill:#fff;}.cls-3{fill:#503629;}.cls-4{fill:#bc955c;}.cls-5{fill:#93c01f;}</style></defs><path class="cls-1" d="M101.14,6.25H99.37C74.2,6.24,50.5,13.63,32.64,27S4.87,58.24,4.57,77.28c-.25,15.9,6.2,31.08,18.65,43.91A94.73,94.73,0,0,0,55.8,142.51a119.28,119.28,0,0,0,43.06,8.42h1.78c25.17,0,48.87-7.38,66.73-20.79s27.76-31.21,28.06-50.24C195.68,64,189.24,48.82,176.78,36a94.69,94.69,0,0,0-32.57-21.32A119.58,119.58,0,0,0,101.14,6.25Z" transform="translate(0 -1.6)"/><path class="cls-2" d="M100.63,153h-1.8A121.18,121.18,0,0,1,55,144.42a96.61,96.61,0,0,1-33.29-21.8C8.9,109.4,2.25,93.71,2.51,77.24c.31-19.68,10.56-38.1,28.89-51.86s42.35-21.2,68-21.2h1.8A121.41,121.41,0,0,1,145,12.76a96.66,96.66,0,0,1,33.28,21.8c12.84,13.22,19.49,28.92,19.24,45.38-.31,19.69-10.57,38.1-28.89,51.86S126.25,153,100.63,153ZM99.37,6.24C74.2,6.24,50.5,13.63,32.64,27S4.87,58.24,4.57,77.28c-.25,15.9,6.2,31.08,18.65,43.91a94.78,94.78,0,0,0,32.57,21.32,119.37,119.37,0,0,0,43.07,8.42h1.77c25.18,0,48.88-7.38,66.74-20.79s27.76-31.21,28.06-50.24c.25-15.91-6.2-31.09-18.65-43.92a94.69,94.69,0,0,0-32.57-21.32,119.58,119.58,0,0,0-43.07-8.42Z" transform="translate(0 -1.6)"/><path class="cls-3" d="M171.17,24.8c-18.6-14.59-43.45-22.82-70-23.18l-1.83,0c-26.13,0-50.79,7.71-69.44,21.71C11,37.56.33,56.7,0,77.21-.32,98,9.92,117.56,28.83,132.39c18.61,14.58,43.45,22.81,70,23.17.62,0,1.22,0,1.83,0,26.13,0,50.8-7.71,69.44-21.71C189,119.62,199.67,100.48,200,80,200.32,59.22,190.08,39.62,171.17,24.8Zm-2.56,107c-18.22,13.67-42.36,21.2-68,21.2h-1.8A121.28,121.28,0,0,1,55,144.42a96.66,96.66,0,0,1-33.28-21.8C8.9,109.4,2.25,93.71,2.51,77.24c.31-19.68,10.56-38.1,28.89-51.86s42.35-21.2,68-21.2h1.8A121.45,121.45,0,0,1,145,12.76a96.66,96.66,0,0,1,33.28,21.8c12.84,13.22,19.49,28.92,19.24,45.38C197.19,99.63,186.93,118,168.61,131.8Z" transform="translate(0 -1.6)"/><path class="cls-4" d="M100,121.15c-34.36,0-62.31-19.09-62.31-42.56S65.64,36,100,36s62.31,19.09,62.31,42.55S134.36,121.15,100,121.15Z" transform="translate(0 -1.6)"/><path class="cls-2" d="M100,38.12c-33.21,0-60.23,18.16-60.23,40.47s27,40.48,60.23,40.48,60.24-18.16,60.24-40.48S133.21,38.12,100,38.12Z" transform="translate(0 -1.6)"/><path class="cls-4" d="M53.44,120.16a15.47,15.47,0,0,0-2.77-2.81c-2.58-1.9-5.72-2.24-7.94.76-2.44,3.31-.84,6.14,1.38,7.79a12.28,12.28,0,0,0,3.78,1.75L47.48,130a18.59,18.59,0,0,1-5.5-2.87c-5.33-3.94-6-8.82-3.63-12.09,2.61-3.53,7.72-3.86,13.07.1A21.61,21.61,0,0,1,55.48,119Z" transform="translate(0 -1.6)"/><path class="cls-4" d="M48.61,131.88,47,131.35l.46-1.37L47,131.34a20,20,0,0,1-5.87-3.07c-6.41-4.74-6.59-10.5-3.93-14.11A8.19,8.19,0,0,1,44,110.82,14.32,14.32,0,0,1,52.28,114a22.85,22.85,0,0,1,4.33,4.16l1.06,1.33L53.06,122l-.76-1a13.9,13.9,0,0,0-2.49-2.54,5.35,5.35,0,0,0-3.07-1.18A3.5,3.5,0,0,0,43.89,119c-1.08,1.46-1.77,3.65,1.08,5.76a10.48,10.48,0,0,0,3.34,1.54l1.23.38Z" transform="translate(0 -1.6)"/><path class="cls-4" d="M58.05,127.81c1.42-4.59,6.27-6.08,11.78-4.38,4.51,1.4,8.79,4.65,7.15,10-1.39,4.5-5.91,6.4-11.9,4.55-6.54-2-8.17-6.46-7-10.11Zm5.1,1.62c-1.07,3.46-.24,5.65,2.68,6.55,2.14.66,4.73.05,6-4.13,1-3.25.37-5.49-2.66-6.43s-5,.64-6,4Z" transform="translate(0 -1.6)"/><path class="cls-4" d="M69.38,140.09a16.08,16.08,0,0,1-4.72-.77c-3.36-1-5.85-2.8-7.21-5.09a8.33,8.33,0,0,1-.79-6.83c1.18-3.82,4.52-6.09,8.93-6.09a15.78,15.78,0,0,1,4.67.75c6.61,2,9.71,6.55,8.1,11.75C77.15,137.74,73.79,140.09,69.38,140.09Zm-1.89-13.51c-.53,0-1.95,0-2.95,3.26a5.14,5.14,0,0,0-.21,3.29c.1.25.41,1,1.93,1.47a3.39,3.39,0,0,0,1,.17c1.44,0,2.52-1.13,3.2-3.35a5,5,0,0,0,.21-3.13c-.16-.44-.54-1.06-1.92-1.49A4.58,4.58,0,0,0,67.49,126.58Z" transform="translate(0 -1.6)"/><path class="cls-4" d="M98.51,128.32l-.2,2.28L90,129.88,89.64,134l7.72.67-.19,2.3-7.73-.66-.53,6-5.07-.44,1.28-14.77Z" transform="translate(0 -1.6)"/><path class="cls-4" d="M90.23,143.94l-8-.69,1.52-17.66L100.07,127l-.45,5.16-8.31-.72-.11,1.27,7.73.67-.45,5.18-7.73-.67Z" transform="translate(0 -1.6)"/><path class="cls-4" d="M119.24,126.8l.22,2.28-8.31.81.4,4.13,7.72-.75.23,2.31-7.72.75.58,6-5.06.49-1.44-14.76Z" transform="translate(0 -1.6)"/><path class="cls-4" d="M106,144.44l-1.71-17.64,16.24-1.58.51,5.16-8.31.8.12,1.27,7.72-.75.5,5.17-7.72.76.59,6Z" transform="translate(0 -1.6)"/><path class="cls-4" d="M139.11,121.2l.69,2.19-8,2.52,1.13,3.56,7.4-2.35.66,2.1-7.39,2.34,1.28,4.05,8.09-2.56.71,2.25-12.94,4.1-4.48-14.14Z" transform="translate(0 -1.6)"/><path class="cls-4" d="M129.84,141.21l-5.35-16.89,15.56-4.93,1.57,4.94-8,2.52.25.8,7.4-2.34,1.53,4.85-7.39,2.34.41,1.3,8.09-2.56,1.59,5Z" transform="translate(0 -1.6)"/><path class="cls-4" d="M157,110.33l1.31,1.89L151.4,117l2.11,3.07,6.39-4.41,1.25,1.81-6.38,4.41,2.41,3.5,7-4.82,1.35,1.94-11.18,7.71L145.9,118Z" transform="translate(0 -1.6)"/><path class="cls-4" d="M154,132.18,143.9,117.59l13.43-9.27,2.95,4.26-6.88,4.75.48.69,6.39-4.41,2.89,4.19-6.39,4.41.78,1.12,7-4.82,3,4.31Z" transform="translate(0 -1.6)"/><path class="cls-2" d="M51.42,115.12c-5.35-4-10.46-3.63-13.07-.1-2.41,3.27-1.7,8.15,3.63,12.09a18.59,18.59,0,0,0,5.5,2.87l.41-2.33a12.28,12.28,0,0,1-3.78-1.75c-2.22-1.65-3.82-4.48-1.38-7.79,2.22-3,5.36-2.66,7.94-.76a15.47,15.47,0,0,1,2.77,2.81l2-1.15A21.61,21.61,0,0,0,51.42,115.12Z" transform="translate(0 -1.6)"/><path class="cls-2" d="M69.83,123.43c-5.51-1.7-10.36-.21-11.78,4.38v0c-1.13,3.65.5,8.08,7,10.11,6,1.85,10.51-.05,11.9-4.55C78.62,128.08,74.34,124.83,69.83,123.43Zm2,8.42c-1.29,4.18-3.88,4.79-6,4.13-2.92-.9-3.75-3.09-2.68-6.55h0c1-3.36,2.86-5,6-4S72.86,128.6,71.85,131.85Z" transform="translate(0 -1.6)"/><polygon class="cls-2" points="83.84 140.33 88.91 140.77 89.44 134.72 97.17 135.39 97.36 133.09 89.64 132.42 89.99 128.28 98.31 129 98.51 126.71 85.12 125.56 83.84 140.33"/><polygon class="cls-2" points="119.28 131.67 111.55 132.42 111.15 128.28 119.46 127.47 119.24 125.19 105.86 126.49 107.3 141.26 112.36 140.76 111.78 134.73 119.5 133.97 119.28 131.67"/><polygon class="cls-2" points="134.92 134.01 133.64 129.96 141.03 127.62 140.37 125.52 132.97 127.86 131.84 124.3 139.8 121.79 139.11 119.6 126.3 123.66 130.78 137.79 143.72 133.7 143.01 131.45 134.92 134.01"/><polygon class="cls-2" points="164.16 118.91 157.18 123.73 154.76 120.24 161.15 115.83 159.9 114.02 153.51 118.43 151.4 115.36 158.27 110.61 156.96 108.73 145.9 116.36 154.33 128.57 165.51 120.85 164.16 118.91"/><path class="cls-4" d="M17.39,59.5,22.83,62l2.91-6.29L20.3,53.22l1.91-4.13,13.45,6.24-1.91,4.13-6-2.78L24.87,63l6,2.77-1.91,4.12L15.47,63.63Z" transform="translate(0 -1.6)"/><path class="cls-4" d="M29.63,71.78,13.56,64.33l3.12-6.75,5.45,2.53,1.7-3.67-5.45-2.52,3.13-6.74,16.07,7.45-3.12,6.74-6-2.77-1.7,3.67,6,2.77Z" transform="translate(0 -1.6)"/><path class="cls-4" d="M34.35,36.21l10,10.9L41.06,50.2,31,39.3Z" transform="translate(0 -1.6)"/><path class="cls-4" d="M41,52.24l-12-13,5.47-5,12,13Z" transform="translate(0 -1.6)"/><path class="cls-4" d="M55.76,25.67a13,13,0,0,0-3.66,1.26c-3.11,1.67-4.34,4.48-2.63,7.65s4.32,3.51,7.06,2.29a15,15,0,0,0,1.65-1l-1.73-3.23-2.71,1.46-1-1.9,6.52-3.51,3.29,6.12a20.28,20.28,0,0,1-5.14,4c-5.37,2.9-10.22,1.83-12.26-2s-.44-8.54,5.29-11.62a19,19,0,0,1,5-1.9Z" transform="translate(0 -1.6)"/><path class="cls-4" d="M51.48,42a8.37,8.37,0,0,1-7.63-4.36c-2.16-4-1.19-9.78,5.88-13.59a20.77,20.77,0,0,1,5.42-2l1.53-.32.69,5.17-1.32.27a11.53,11.53,0,0,0-3.26,1.11c-1.48.8-3.72,2.6-2,5.69A3.76,3.76,0,0,0,53.09,36l-2.33-4.34,9.05-4.88,4.48,8.32-.74.77a21.45,21.45,0,0,1-5.49,4.28A14.11,14.11,0,0,1,51.48,42ZM53.28,36a4.62,4.62,0,0,0,2.64-.46,2.79,2.79,0,0,0,.34-.18l-.4-.74Z" transform="translate(0 -1.6)"/><path class="cls-4" d="M70.42,17.89l1.35,5.85,6.75-1.55-1.35-5.85,4.43-1,3.33,14.45-4.43,1L79,24.38l-6.76,1.55,1.48,6.42-4.43,1L66,18.91Z" transform="translate(0 -1.6)"/><path class="cls-4" d="M68.23,35.1l-4-17.27,7.24-1.67L72.85,22l3.94-.91-1.35-5.84,7.25-1.67,4,17.27-7.24,1.67-1.48-6.42L74,27l1.48,6.42Z" transform="translate(0 -1.6)"/><path class="cls-4" d="M91.5,30.62,91.12,12.9l7.43-.15.27,12.47,7.25-.16.12,5.25Z" transform="translate(0 -1.6)"/><path class="cls-4" d="M123.38,16.48l4.68,16-4.78-.91-1-3.92L116,26.46l-2.4,3.27-3.11-.59L120.77,16Zm-6,8.17,4.39.83-1.32-5.05Z" transform="translate(0 -1.6)"/><path class="cls-4" d="M130.11,34.33l-8-1.52-1-3.92L116.67,28l-2.41,3.27-6.32-1.2L120.17,14.4l4.35.83Z" transform="translate(0 -1.6)"/><path class="cls-4" d="M142.43,22.08l4.82,12.45,3.93-8.33L154,27.5l-6.32,13.42-2.5-1.18-4.82-12.45-3.93,8.33-2.77-1.31,6.32-13.41Z" transform="translate(0 -1.6)"/><path class="cls-4" d="M148.32,42.84l-4.33-2L140.18,31l-3.11,6.59L131.69,35l7.55-16,4.33,2,3.81,9.85,3.11-6.6,5.38,2.54Z" transform="translate(0 -1.6)"/><path class="cls-4" d="M168.59,38.85c2,2,3.78,3.89,4.43,6.55a6.32,6.32,0,0,1-1.94,5.94,7.3,7.3,0,0,1-7.83,1.77c-1.93-.71-3.31-1.9-5.54-4.17l-3.81-3.89,10.59-10.38Zm-2.46.57-7.51,7.36,1,1c1.64,1.67,3.82,4.31,8.09.13,3.45-3.38,1.41-5.47-.29-7.2Z" transform="translate(0 -1.6)"/><path class="cls-4" d="M165.85,55a8.77,8.77,0,0,1-3.11-.58c-2.18-.81-3.7-2.1-6.06-4.51L151.86,45l12.66-12.39,5.1,5.21c2,2,4,4.12,4.8,7.21a7.75,7.75,0,0,1-2.33,7.33A9.06,9.06,0,0,1,165.85,55Zm-5.19-8.24.2.21c.81.84,1.66,1.7,2.64,1.7a5.21,5.21,0,0,0,3.18-1.83c2.42-2.37,1.45-3.36-.32-5.15l-.25-.26Z" transform="translate(0 -1.6)"/><path class="cls-4" d="M182.58,65.69a13.53,13.53,0,0,0-.64-3.82c-.48-1.35-1.32-2.15-2.1-1.87s-.88,1.25-1.13,2.86l-.26,1.88c-.35,2.15-.82,4.72-3.09,5.53s-5.14-.59-6.65-4.82a13.53,13.53,0,0,1-.81-5.63l2.4.18a11.59,11.59,0,0,0,.58,4.51c.55,1.54,1.48,2.27,2.28,2s1-1,1.35-3.12l.24-1.79c.27-1.69.74-4.58,3-5.39,2.42-.87,5,1,6.38,4.81a14.91,14.91,0,0,1,.84,4.74Z" transform="translate(0 -1.6)"/><path class="cls-4" d="M174.1,71.93c-2.89,0-5.41-2.24-6.75-6a15.08,15.08,0,0,1-.89-6.2l.08-1.47,5.23.4,0,1.37a10.36,10.36,0,0,0,.5,4,3.18,3.18,0,0,0,.47.91,12.22,12.22,0,0,0,.37-1.78l.23-1.76c.29-1.8.87-5.46,4-6.56a5,5,0,0,1,1.66-.29c2.73,0,5.25,2.29,6.57,6a16.28,16.28,0,0,1,.92,5.2l0,1.5-5.26-.11-.06-1.36a11.76,11.76,0,0,0-.55-3.4,4.21,4.21,0,0,0-.23-.51c-.08.39-.16.87-.22,1.24l-.25,1.9c-.37,2.2-.92,5.54-4,6.65A5.19,5.19,0,0,1,174.1,71.93Z" transform="translate(0 -1.6)"/><polygon class="cls-2" points="20.3 51.61 25.75 54.14 22.83 60.42 17.39 57.9 15.47 62.02 28.93 68.26 30.84 64.14 24.86 61.37 27.78 55.08 33.75 57.85 35.66 53.73 22.21 47.49 20.3 51.61"/><rect class="cls-2" x="35.43" y="35.79" width="4.55" height="14.83" transform="translate(-19.3 35.42) rotate(-42.7)"/><path class="cls-2" d="M52.71,32.24l1,1.9,2.71-1.46,1.73,3.23a15,15,0,0,1-1.65,1c-2.74,1.22-5.38.83-7.06-2.29s-.48-6,2.63-7.65a13,13,0,0,1,3.66-1.26l-.31-2.28a19,19,0,0,0-5,1.9c-5.73,3.08-7.34,7.81-5.29,11.62s6.89,4.85,12.26,2a20.28,20.28,0,0,0,5.14-4l-3.29-6.12Z" transform="translate(0 -1.6)"/><polygon class="cls-2" points="77.17 14.73 78.52 20.58 71.77 22.14 70.42 16.29 65.99 17.31 69.32 31.76 73.75 30.74 72.27 24.32 79.03 22.77 80.5 29.19 84.93 28.17 81.61 13.72 77.17 14.73"/><polygon class="cls-2" points="97.41 25.09 97.14 12.62 92.6 12.71 92.91 27.54 104.71 27.29 104.66 24.93 97.41 25.09"/><path class="cls-2" d="M120.77,16,110.53,29.14l3.11.59,2.4-3.27,6.24,1.18,1,3.92,4.78.91-4.68-16Zm-3.41,8.66,3.07-4.22,1.32,5.05Z" transform="translate(0 -1.6)"/><polygon class="cls-2" points="151.18 24.59 147.25 32.93 142.43 20.47 139.93 19.3 133.61 32.71 136.38 34.02 140.31 25.68 145.13 38.14 147.63 39.32 153.95 25.9 151.18 24.59"/><path class="cls-2" d="M173,45.4c-.65-2.66-2.46-4.55-4.43-6.55l-4.1-4.18L153.9,45.05l3.81,3.89c2.23,2.27,3.61,3.46,5.54,4.17a7.3,7.3,0,0,0,7.83-1.77A6.32,6.32,0,0,0,173,45.4Zm-5.33,2.52c-4.27,4.18-6.45,1.54-8.09-.13l-1-1,7.51-7.36,1.27,1.3C169.1,42.45,171.14,44.54,167.69,47.92Z" transform="translate(0 -1.6)"/><path class="cls-2" d="M184.14,61c-1.35-3.78-4-5.68-6.38-4.81-2.27.81-2.74,3.7-3,5.39l-.24,1.79c-.33,2.1-.59,2.85-1.35,3.12s-1.73-.44-2.28-2A11.59,11.59,0,0,1,170.3,60l-2.4-.18a13.53,13.53,0,0,0,.81,5.63c1.51,4.23,4.39,5.63,6.65,4.82s2.74-3.38,3.09-5.53l.26-1.88c.25-1.61.42-2.6,1.13-2.86s1.62.52,2.1,1.87a13.53,13.53,0,0,1,.64,3.82l2.4,0A14.91,14.91,0,0,0,184.14,61Z" transform="translate(0 -1.6)"/><path class="cls-4" d="M100.17,113.78c-12.27,0-24.27-2.57-33.83-7.23-9.77-4.77-16.54-11.52-19.06-19l-.12-.37,0-.38A10.16,10.16,0,0,1,51.71,79c3.47-2.46,8.76-3.71,15.71-3.71,7.76,0,17.6,1.57,29.25,4.66h0c2.19.63,21.83,6.16,37.81,6.16,6.76,0,11.83-1,15.06-3,.33-.21.65-.42.95-.65l4.24-3.23-.94,5.25C150.84,101.18,127.77,113.78,100.17,113.78Z" transform="translate(0 -1.6)"/><path class="cls-3" d="M49.26,86.87c4.83,14.4,26.19,24.83,50.91,24.83,26.6,0,48.85-12.15,51.61-27.6-.34.26-.72.52-1.11.76-3.56,2.19-9,3.31-16.15,3.31-16.24,0-36.17-5.6-38.38-6.24-11.47-3-21.14-4.59-28.72-4.59-6.51,0-11.4,1.12-14.51,3.32A8,8,0,0,0,49.26,86.87Z" transform="translate(0 -1.6)"/><path class="cls-4" d="M53.64,86.41s1.92-10.32,29.59-3.22c0,0,17.7,4.41,19.78,4.22s-2.08.19-2.08.19-16,2-19.76,2.41L83,87.09,69.13,91l2.27-3.31s-12.67,1.49-7.9,11C63.5,98.7,53.64,90.81,53.64,86.41Z" transform="translate(0 -1.6)"/><path class="cls-4" d="M134.19,81.18a106.64,106.64,0,0,1-16.33-1.48,199.44,199.44,0,0,1-21.27-4.65C84.8,71.92,74.82,70.33,67,70.33c-7.15,0-12.62,1.31-16.28,3.9-.52.37-1,.7-1.36,1l-4.09,3.21L46,73.3c1.31-9,8.39-17.06,19.94-22.71L67.11,50l1,.83a9.22,9.22,0,0,0,5.8,2,10.24,10.24,0,0,0,1.89-.18h0c1.36-.8,10.26-5.72,27.6-9.14l.62-.12.59.24c1.78.74,11.52,5,27.66,16.39A16.36,16.36,0,0,0,139.59,62a9.87,9.87,0,0,0,5.3-1.44l1.52-.93,1.16,1.34a25.44,25.44,0,0,1,5.5,10.1l.09.38,0,.38c-.2,1.83-1.15,4.45-4.52,6.53C145.52,80.22,140.67,81.18,134.19,81.18Z" transform="translate(0 -1.6)"/><path class="cls-3" d="M67,68.25c8,0,18.2,1.62,30.2,4.8a196.61,196.61,0,0,0,21,4.6,105.07,105.07,0,0,0,16,1.45c6.09,0,10.57-.86,13.32-2.55a6.75,6.75,0,0,0,3.54-5A23.11,23.11,0,0,0,146,62.29a12,12,0,0,1-6.4,1.75,18.34,18.34,0,0,1-8.36-2.22l-.08,0c-16-11.29-25.74-15.55-27.3-16.2-18.39,3.63-27,8.92-27.09,9l-.34.14a13.2,13.2,0,0,1-2.48.25,11.35,11.35,0,0,1-7.11-2.47C55.94,57.79,49.24,65.37,48,73.6c.42-.33.9-.68,1.44-1.06C53.49,69.69,59.38,68.25,67,68.25Z" transform="translate(0 -1.6)"/><path class="cls-4" d="M80,56.48s6.44-3.7,17.25-5.65l6.66,2.82-4.78,4.78,10.39-1.17s8.11,4.29,10.19,5.85a40.4,40.4,0,0,1-23.39,0S83.75,57.53,80,56.48Z" transform="translate(0 -1.6)"/><path class="cls-4" d="M66.19,56.21A28.19,28.19,0,0,0,55.87,66.45s15.81-2.46,29,0c0,0-4.27-4.09-8.56-5.16-2.2-.54-7.91,2.72-7.91,2.72l4-4.87S68.82,57.66,66.19,56.21Z" transform="translate(0 -1.6)"/><path class="cls-5" d="M73.89,78.59" transform="translate(0 -1.6)"/></svg>