<?xml version="1.0" encoding="utf-8"?>
<!-- Generator: Adobe Illustrator 29.8.2, SVG Export Plug-In . SVG Version: 9.03 Build 0)  -->
<svg version="1.0" id="Layer_1" xmlns="http://www.w3.org/2000/svg" xmlns:xlink="http://www.w3.org/1999/xlink" x="0px" y="0px"
	 viewBox="0 0 120 129" style="enable-background:new 0 0 120 129;" xml:space="preserve">
<style type="text/css">
	.st0{fill:#1D2C99;}
	.st1{fill:#111E5B;}
	.st2{fill:#3F88D8;}
	.st3{fill:#00C3FF;}
	.st4{fill:#0DD1FF;}
	.st5{fill:#FFFFFF;}
	.st6{fill-rule:evenodd;clip-rule:evenodd;fill:#3F88D8;}
	.st7{fill-rule:evenodd;clip-rule:evenodd;fill:#005C85;}
	.st8{fill-rule:evenodd;clip-rule:evenodd;fill:#00C3FF;}
	.st9{fill-rule:evenodd;clip-rule:evenodd;fill:#56A5E6;}
	.st10{fill-rule:evenodd;clip-rule:evenodd;fill:#EAF6FF;}
	.st11{fill-rule:evenodd;clip-rule:evenodd;fill:#BEC7CF;}
	.st12{fill-rule:evenodd;clip-rule:evenodd;fill:#FFBA57;}
	.st13{fill:#BEC7CF;}
	.st14{fill:#CF9646;}
	.st15{fill-rule:evenodd;clip-rule:evenodd;fill:#E6A74E;}
	.st16{fill-rule:evenodd;clip-rule:evenodd;fill:#D3DDE6;}
	.st17{fill-rule:evenodd;clip-rule:evenodd;fill:#25C73B;}
	.st18{fill-rule:evenodd;clip-rule:evenodd;fill:#FFB030;}
	.st19{fill:#D6E4E8;}
	.st20{fill:#BACED3;}
	.st21{fill:#FAAF42;}
	.st22{fill:#F8C460;}
	.st23{fill:#FFD9A6;}
	.st24{fill:#58595B;}
	.st25{fill:#6D6E71;}
	.st26{fill:#8E969B;}
	.st27{fill:#778084;}
	.st28{fill:#F29F5C;}
	.st29{fill:#D37D42;}
	.st30{fill:#F9C295;}
	.st31{fill:#E59F6A;}
	.st32{fill:#5C9CEE;}
	.st33{fill:#3580D3;}
	.st34{fill:#414042;}
	.st35{fill:#EBEEF2;}
	.st36{fill:#FFB030;}
	.st37{fill:#23468C;}
	.st38{fill:#3C5380;}
	.st39{fill:#00BF50;}
	.st40{fill:#FFC18C;}
	.st41{fill:#0DC7FF;}
	.st42{fill:#FFCB40;}
	.st43{fill:#F25B49;}
	.st44{fill:#FF9E26;}
	.st45{fill:#F2F5FF;}
</style>
<path class="st18" d="M22.3,52.6c-3.1,0-5.5-2.5-5.5-5.5c0,3.1-2.5,5.5-5.5,5.5c3.1,0,5.5,2.5,5.5,5.5
	C16.8,55.1,19.3,52.6,22.3,52.6z"/>
<path class="st18" d="M105.3,50.3c-3.1,0-5.5-2.5-5.5-5.5c0,3.1-2.5,5.5-5.5,5.5c3.1,0,5.5,2.5,5.5,5.5
	C99.8,52.7,102.2,50.3,105.3,50.3z"/>
<path class="st18" d="M33.6,21.7c-4.1,0-7.4-3.3-7.4-7.4c0,4.1-3.3,7.4-7.4,7.4c4.1,0,7.4,3.3,7.4,7.4C26.1,25,29.5,21.7,33.6,21.7z
	"/>
<path class="st18" d="M103.2,21.7c-4.4,0-8-3.6-8-8c0,4.4-3.6,8-8,8c4.4,0,8,3.6,8,8C95.2,25.3,98.8,21.7,103.2,21.7z"/>
<g>
	<g>
		<path class="st19" d="M59.8,117.3l-37.2-6.2c-1.6-0.3-2.8-1.7-2.8-3.3V67.3l40,6.7V117.3z"/>
		<path class="st20" d="M34.3,109.2c-6.4-1.1-11.1-6.6-11.1-13.2V67.9l-3.3-0.6v40.5c0,1.6,1.2,3,2.8,3.3l37.2,6.2v-3.9L34.3,109.2z
			"/>
		<path class="st19" d="M59.8,117.3l37.2-6.2c1.6-0.3,2.8-1.7,2.8-3.3V67.3l-40,6.7V117.3z"/>
		<path class="st20" d="M63.1,96.6V73.4L59.8,74v43.3l37.2-6.2c1.6-0.3,2.8-1.7,2.8-3.3v-1.6l-21.1,3.5c-7.3,1.2-14.1-3.7-15.3-11
			C63.2,98.1,63.1,97.3,63.1,96.6z M49.8,72.3h-30v13.1l33.3,6.9L59.8,79v-5L49.8,72.3z"/>
		<path class="st20" d="M99.8,72.3h-30l-10,1.7v5l6.7,13.3l33.3-6.9V72.3z"/>
		<path class="st19" d="M66.5,87.3l40-8.3l-6.7-11.7l-40,6.7L66.5,87.3z M53.1,87.3l-40-8.3l6.7-11.7l40,6.7L53.1,87.3z"/>
		<path class="st20" d="M19.8,67.3c0,0,40,6.7,40,6.7l40-6.7l-40-6.7L19.8,67.3z"/>
		<path class="st0" d="M28.1,40.7v5c0,0.9,0.7,1.7,1.7,1.7c0.9,0,1.7-0.7,1.7-1.7v-1l4.3,4.3c4.7,4.7,7.3,11,7.3,17.7v0.6
			c0,0.9,0.7,1.7,1.7,1.7c0.9,0,1.7-0.7,1.7-1.7v-0.6c0-7.5-3-14.7-8.3-20l-4.3-4.3h1c0.9,0,1.7-0.7,1.7-1.7c0-0.9-0.7-1.7-1.7-1.7
			h-5C28.9,39,28.1,39.7,28.1,40.7z M73.1,66.7v0.6c0,0.9,0.7,1.7,1.7,1.7c0.9,0,1.7-0.7,1.7-1.7v-0.6c0-6.6,2.6-13,7.3-17.7
			l4.3-4.3v1c0,0.9,0.7,1.7,1.7,1.7c0.9,0,1.7-0.7,1.7-1.7v-5c0-0.9-0.7-1.7-1.7-1.7h-5c-0.9,0-1.7,0.7-1.7,1.7
			c0,0.9,0.7,1.7,1.7,1.7h1l-4.3,4.3C76.1,52,73.1,59.2,73.1,66.7z"/>
		<path class="st21" d="M78.1,32.3c0-10.1-8.2-18.3-18.3-18.4s-18.3,8.2-18.4,18.3c0,5.8,2.7,11.3,7.4,14.7c1.7,1.2,2.6,3.2,2.6,5.3
			V54h16.7v-1.7c0-2.1,0.9-4,2.6-5.2C75.4,43.6,78.1,38.1,78.1,32.3z"/>
		<circle class="st22" cx="59.8" cy="32.3" r="15"/>
		<circle class="st23" cx="59.8" cy="37.3" r="3.3"/>
		<path class="st5" d="M69.3,24.8c-0.2,0-0.5-0.1-0.6-0.3c-1.2-1.3-2.5-2.4-4.1-3.1c-0.4-0.2-0.6-0.7-0.4-1.1
			c0.2-0.4,0.7-0.6,1.1-0.4c1.7,0.9,3.3,2.1,4.5,3.5c0.3,0.3,0.3,0.9-0.1,1.2C69.7,24.8,69.5,24.8,69.3,24.8L69.3,24.8z"/>
		<path class="st24" d="M59.8,52.3c-0.9,0-1.7-0.7-1.7-1.7v-10c0-0.9,0.7-1.7,1.7-1.7c0.9,0,1.7,0.7,1.7,1.7v10
			C61.5,51.6,60.7,52.3,59.8,52.3z M51.5,54h16.7v3.3c0,3.7-3,6.7-6.7,6.7h-3.3c-3.7,0-6.7-3-6.7-6.7V54z"/>
		<path class="st25" d="M52.4,60.7h14.8c0.6-1,0.9-2.2,0.9-3.3V54H51.5v3.3C51.5,58.5,51.8,59.7,52.4,60.7z"/>
		<path class="st26" d="M51.5,50.7h16.7c1.8,0,3.3,1.5,3.3,3.3l0,0c0,1.8-1.5,3.3-3.3,3.3H51.5c-1.8,0-3.3-1.5-3.3-3.3l0,0
			C48.1,52.2,49.6,50.7,51.5,50.7z"/>
		<path class="st27" d="M53.1,54c0-1.8,1.5-3.3,3.3-3.3h-5c-1.8,0-3.3,1.5-3.3,3.3s1.5,3.3,3.3,3.3h5C54.6,57.3,53.1,55.8,53.1,54z"
			/>
	</g>
</g>
</svg>
