<?xml version="1.0" encoding="utf-8"?>
<!-- Generator: Adobe Illustrator 29.8.2, SVG Export Plug-In . SVG Version: 9.03 Build 0)  -->
<svg version="1.0" id="Layer_1" xmlns="http://www.w3.org/2000/svg" xmlns:xlink="http://www.w3.org/1999/xlink" x="0px" y="0px"
	 viewBox="0 0 120 129" style="enable-background:new 0 0 120 129;" xml:space="preserve">
<style type="text/css">
	.st0{fill:#1D2C99;}
	.st1{fill:#111E5B;}
	.st2{fill:#3F88D8;}
	.st3{fill:#00C3FF;}
	.st4{fill:#0DD1FF;}
	.st5{fill:#FFFFFF;}
	.st6{fill-rule:evenodd;clip-rule:evenodd;fill:#3F88D8;}
	.st7{fill-rule:evenodd;clip-rule:evenodd;fill:#005C85;}
	.st8{fill-rule:evenodd;clip-rule:evenodd;fill:#00C3FF;}
	.st9{fill-rule:evenodd;clip-rule:evenodd;fill:#56A5E6;}
	.st10{fill-rule:evenodd;clip-rule:evenodd;fill:#EAF6FF;}
	.st11{fill-rule:evenodd;clip-rule:evenodd;fill:#BEC7CF;}
	.st12{fill-rule:evenodd;clip-rule:evenodd;fill:#FFBA57;}
	.st13{fill:#BEC7CF;}
	.st14{fill:#CF9646;}
	.st15{fill-rule:evenodd;clip-rule:evenodd;fill:#E6A74E;}
	.st16{fill-rule:evenodd;clip-rule:evenodd;fill:#D3DDE6;}
	.st17{fill-rule:evenodd;clip-rule:evenodd;fill:#25C73B;}
	.st18{fill-rule:evenodd;clip-rule:evenodd;fill:#FFB030;}
	.st19{fill:#D6E4E8;}
	.st20{fill:#BACED3;}
	.st21{fill:#FAAF42;}
	.st22{fill:#F8C460;}
	.st23{fill:#FFD9A6;}
	.st24{fill:#58595B;}
	.st25{fill:#6D6E71;}
	.st26{fill:#8E969B;}
	.st27{fill:#778084;}
	.st28{fill:#F29F5C;}
	.st29{fill:#D37D42;}
	.st30{fill:#F9C295;}
	.st31{fill:#E59F6A;}
	.st32{fill:#5C9CEE;}
	.st33{fill:#3580D3;}
	.st34{fill:#414042;}
	.st35{fill:#EBEEF2;}
	.st36{fill:#FFB030;}
	.st37{fill:#23468C;}
	.st38{fill:#3C5380;}
	.st39{fill:#00BF50;}
	.st40{fill:#FFC18C;}
	.st41{fill:#0DC7FF;}
	.st42{fill:#FFCB40;}
	.st43{fill:#F25B49;}
	.st44{fill:#FF9E26;}
	.st45{fill:#F2F5FF;}
</style>
<g>
	<g>
		<path class="st6" d="M9.5,51.2L38.2,18c0.2-0.2,0.4-0.2,0.6,0l42.6,36.8c0.2,0.2,0.2,0.4,0,0.6L52.7,88.6c-0.2,0.2-0.4,0.2-0.6,0
			L9.5,51.8C9.3,51.7,9.3,51.4,9.5,51.2C9.5,51.2,9.5,51.2,9.5,51.2L9.5,51.2z"/>
		<path class="st7" d="M28.5,35.6l20.1-9.1l32.8,28.3c0.2,0.2,0.2,0.4,0,0.6L52.7,88.6c-0.2,0.2-0.4,0.2-0.6,0l-2-1.8l-22.3-49
			C27.3,37,27.7,36,28.5,35.6L28.5,35.6z"/>
		<path class="st8" d="M29.1,36.8l40-18.2c0.2-0.1,0.5,0,0.5,0.2l23.3,51.2c0.1,0.2,0,0.5-0.2,0.6c0,0,0,0,0,0l-40,18.2
			c-0.2,0.1-0.5,0-0.6-0.2L28.9,37.3C28.8,37.1,28.9,36.8,29.1,36.8L29.1,36.8z"/>
		<path class="st9" d="M52.8,30.5h22.2l18,39.5c0.1,0.2,0,0.5-0.2,0.6c0,0,0,0,0,0l-40,18.2c-0.2,0.1-0.5,0-0.6-0.2L51.1,86V32.2
			C51.1,31.3,51.8,30.5,52.8,30.5C52.8,30.5,52.8,30.5,52.8,30.5z"/>
		<path class="st10" d="M52.8,31.8h32.7l11.6,11.6v45.1c0,0.2-0.2,0.4-0.4,0.4H52.8c-0.2,0-0.4-0.2-0.4-0.4c0,0,0,0,0,0V32.2
			C52.4,32,52.6,31.8,52.8,31.8C52.8,31.8,52.8,31.8,52.8,31.8z"/>
		<path class="st11" d="M85.5,31.8v9c0,1.4,1.2,2.6,2.6,2.6h9L85.5,31.8z"/>
		<path class="st12" d="M62.9,71.5h34.3c3.6,0,6.6,2.9,6.6,6.6v27c0,3.6-2.9,6.6-6.6,6.6H36.3c-3.6,0-6.6-2.9-6.6-6.6V64.9
			c0-3,2.4-5.4,5.4-5.4h11.5c1.9,0,3.2,1.2,4.6,2.5l7.1,7C59.7,70.3,61,71.5,62.9,71.5z"/>
	</g>
	<path class="st13" d="M59.5,43.3c-0.8,0-1.5-0.7-1.4-1.5c0-0.8,0.6-1.4,1.4-1.4h19.3c0.8,0,1.5,0.7,1.4,1.5c0,0.8-0.6,1.4-1.4,1.4
		H59.5z M59.5,64.5c-0.8,0-1.5-0.7-1.5-1.5s0.7-1.5,1.5-1.5c0,0,0,0,0,0H90c0.8,0,1.5,0.7,1.5,1.5c0,0.8-0.7,1.5-1.5,1.5
		c0,0,0,0,0,0H59.5z M59.5,57.4c-0.8,0-1.5-0.7-1.4-1.5c0-0.8,0.6-1.4,1.4-1.4H90c0.8,0,1.5,0.6,1.5,1.4c0,0.8-0.6,1.5-1.4,1.5
		c0,0,0,0,0,0H59.5z M59.5,50.4c-0.8,0-1.5-0.7-1.5-1.5s0.7-1.5,1.5-1.5c0,0,0,0,0,0H90c0.8,0,1.5,0.7,1.5,1.5
		c0,0.8-0.7,1.5-1.5,1.5c0,0,0,0,0,0H59.5z"/>
	<path class="st14" d="M39,94c-0.8,0-1.5-0.7-1.5-1.5S38.2,91,39,91h14.2c0.8,0,1.5,0.7,1.5,1.5S54.1,94,53.3,94H39z M39,103.9
		c-0.8,0-1.5-0.7-1.5-1.5s0.7-1.5,1.5-1.5h55.5c0.8,0,1.5,0.7,1.5,1.5s-0.7,1.5-1.5,1.5H39z"/>
	<path class="st15" d="M97.1,72.6c1.8,1.2,2.9,3.3,2.9,5.5v27c0,3.6-2.9,6.6-6.6,6.6h3.7c3.6,0,6.6-2.9,6.6-6.6V78
		c0-0.9-0.2-1.7-0.5-2.5c-1-2.4-3.4-4-6.1-4.1h-3.7C94.8,71.5,96.1,71.8,97.1,72.6L97.1,72.6z M58.3,69l-5.9-5.8L51.2,62
		c-1.4-1.3-2.7-2.5-4.6-2.5H43c1.9,0,3.2,1.2,4.5,2.5l4.9,4.8l2.3,2.2c1.4,1.3,2.6,2.5,4.5,2.5h3.7C61,71.5,59.7,70.3,58.3,69
		L58.3,69z"/>
	<path class="st16" d="M94.5,43.4v28.1c1,0,1.6,0,2.7,0v-28H94.5z"/>
	<g>
		<path class="st17" d="M96.3,112c7.2,0,13.1-5.9,13.1-13.1c0-7.2-5.9-13.1-13.1-13.1c-7.2,0-13.1,5.9-13.1,13.1c0,0,0,0,0,0
			C83.2,106.1,89,112,96.3,112z"/>
		<g>
			<path class="st5" d="M98.3,107.1c-0.2,0-0.3,0.1-0.5,0.1c-0.4,0.1-0.7,0.5-0.6,0.9c0,0.2,0.2,0.4,0.3,0.5
				c0.2,0.1,0.4,0.2,0.6,0.1c0.2,0,0.4-0.1,0.6-0.1c0.4-0.1,0.7-0.5,0.6-1C99.2,107.3,98.7,107,98.3,107.1z M104.2,96.4
				c0.1,0.2,0.2,0.3,0.3,0.4c0.2,0.1,0.5,0.2,0.7,0.1c0.4-0.1,0.7-0.6,0.5-1c-0.1-0.2-0.1-0.4-0.2-0.6c-0.2-0.4-0.6-0.6-1-0.4
				c-0.4,0.2-0.6,0.6-0.4,1C104.1,96,104.2,96.2,104.2,96.4L104.2,96.4z M100.9,106c-0.1,0.1-0.3,0.2-0.4,0.3
				c-0.4,0.2-0.5,0.7-0.3,1.1c0.1,0.1,0.1,0.2,0.2,0.3c0.2,0.2,0.6,0.2,0.9,0c0.2-0.1,0.3-0.2,0.5-0.3c0.4-0.2,0.5-0.7,0.2-1.1
				C101.8,105.8,101.3,105.7,100.9,106L100.9,106z M106.3,98.6c0-0.4-0.4-0.8-0.8-0.8c-0.4,0-0.8,0.4-0.8,0.8c0,0.2,0,0.3,0,0.5
				c0,0.3,0.1,0.5,0.3,0.7c0.1,0.1,0.3,0.1,0.4,0.1c0.4,0,0.8-0.3,0.8-0.8C106.3,99,106.3,98.8,106.3,98.6L106.3,98.6z M104.1,103.9
				c-0.4-0.3-0.9-0.2-1.1,0.2c-0.1,0.1-0.2,0.3-0.3,0.4c-0.3,0.3-0.2,0.8,0.1,1.1c0,0,0,0,0.1,0c0.3,0.2,0.8,0.2,1.1-0.1
				c0.1-0.2,0.3-0.3,0.4-0.5C104.5,104.6,104.5,104.1,104.1,103.9L104.1,103.9z M105.3,101c-0.4-0.1-0.9,0.1-1,0.5
				c-0.1,0.2-0.1,0.3-0.2,0.5c-0.1,0.4,0,0.7,0.3,0.9c0.1,0,0.1,0.1,0.2,0.1c0.4,0.2,0.9,0,1-0.5c0.1-0.2,0.1-0.4,0.2-0.6
				C106,101.5,105.7,101.1,105.3,101z M94.8,107.3c-0.7-0.1-1.4-0.3-2.1-0.7c0,0,0,0,0,0c-0.2-0.1-0.3-0.1-0.5-0.2c0,0,0,0,0,0
				c-0.3-0.2-0.5-0.3-0.8-0.5c-3.8-2.7-4.7-7.9-2-11.7c0.6-0.8,1.3-1.5,2.1-2.1c0,0,0,0,0,0c2.8-1.9,6.5-2,9.4-0.1l-0.6,0.9
				c-0.2,0.3-0.1,0.4,0.2,0.4l2.7-0.2c0.3,0,0.5-0.3,0.4-0.6l-0.7-2.6c-0.1-0.3-0.3-0.3-0.5-0.1l-0.6,0.9c-2.1-1.4-4.7-2-7.3-1.5
				c-0.3,0-0.5,0.1-0.8,0.2c0,0,0,0,0,0c0,0,0,0,0,0c-2.2,0.6-4.1,1.9-5.5,3.7c0,0,0,0,0,0c0,0.1-0.1,0.1-0.1,0.2
				c-0.1,0.1-0.1,0.2-0.2,0.3c0,0,0,0,0,0c-1.1,1.8-1.7,3.8-1.6,5.8c0,0,0,0,0,0c0,0.2,0,0.4,0,0.6c0,0,0,0,0,0
				c0,0.2,0.1,0.4,0.1,0.6c0.4,2.1,1.3,3.9,2.8,5.4c0,0,0,0,0,0c0,0,0,0,0,0c0.4,0.4,0.8,0.7,1.3,1.1c1.2,0.8,2.5,1.4,4,1.7
				c0.4,0.1,0.9-0.2,0.9-0.6C95.5,107.7,95.2,107.3,94.8,107.3L94.8,107.3z"/>
			<path class="st5" d="M95.8,92.5c-0.4,0-0.7,0.3-0.7,0.7v6.5l5.9,3.1c0.1,0,0.2,0.1,0.3,0.1c0.2,0,0.5-0.1,0.6-0.4
				c0.2-0.3,0-0.7-0.3-0.9l-5.2-2.7v-5.7C96.4,92.8,96.1,92.5,95.8,92.5L95.8,92.5z"/>
		</g>
	</g>
</g>
</svg>
