<?xml version="1.0" encoding="utf-8"?>
<!-- Generator: Adobe Illustrator 29.8.2, SVG Export Plug-In . SVG Version: 9.03 Build 0)  -->
<svg version="1.0" id="Layer_1" xmlns="http://www.w3.org/2000/svg" xmlns:xlink="http://www.w3.org/1999/xlink" x="0px" y="0px"
	 viewBox="0 0 120 129" style="enable-background:new 0 0 120 129;" xml:space="preserve">
<style type="text/css">
	.st0{fill:#1D2C99;}
	.st1{fill:#111E5B;}
	.st2{fill:#3F88D8;}
	.st3{fill:#00C3FF;}
	.st4{fill:#0DD1FF;}
	.st5{fill:#FFFFFF;}
	.st6{fill-rule:evenodd;clip-rule:evenodd;fill:#3F88D8;}
	.st7{fill-rule:evenodd;clip-rule:evenodd;fill:#005C85;}
	.st8{fill-rule:evenodd;clip-rule:evenodd;fill:#00C3FF;}
	.st9{fill-rule:evenodd;clip-rule:evenodd;fill:#56A5E6;}
	.st10{fill-rule:evenodd;clip-rule:evenodd;fill:#EAF6FF;}
	.st11{fill-rule:evenodd;clip-rule:evenodd;fill:#BEC7CF;}
	.st12{fill-rule:evenodd;clip-rule:evenodd;fill:#FFBA57;}
	.st13{fill:#BEC7CF;}
	.st14{fill:#CF9646;}
	.st15{fill-rule:evenodd;clip-rule:evenodd;fill:#E6A74E;}
	.st16{fill-rule:evenodd;clip-rule:evenodd;fill:#D3DDE6;}
	.st17{fill-rule:evenodd;clip-rule:evenodd;fill:#25C73B;}
	.st18{fill-rule:evenodd;clip-rule:evenodd;fill:#FFB030;}
	.st19{fill:#D6E4E8;}
	.st20{fill:#BACED3;}
	.st21{fill:#FAAF42;}
	.st22{fill:#F8C460;}
	.st23{fill:#FFD9A6;}
	.st24{fill:#58595B;}
	.st25{fill:#6D6E71;}
	.st26{fill:#8E969B;}
	.st27{fill:#778084;}
	.st28{fill:#F29F5C;}
	.st29{fill:#D37D42;}
	.st30{fill:#F9C295;}
	.st31{fill:#E59F6A;}
	.st32{fill:#5C9CEE;}
	.st33{fill:#3580D3;}
	.st34{fill:#414042;}
	.st35{fill:#EBEEF2;}
	.st36{fill:#FFB030;}
	.st37{fill:#23468C;}
	.st38{fill:#3C5380;}
	.st39{fill:#00BF50;}
	.st40{fill:#FFC18C;}
	.st41{fill:#0DC7FF;}
	.st42{fill:#FFCB40;}
	.st43{fill:#F25B49;}
	.st44{fill:#FF9E26;}
	.st45{fill:#F2F5FF;}
</style>
<g>
	<path class="st0" d="M84.7,108.5l-9.6-2.7c-0.7-0.2-1.5,0.1-1.9,0.8l-4.8,8.8c-0.2,0.4-0.7,0.3-0.9,0l-4.3-10.3L52.8,80l7.7-18.4
		l6.6,2.7L73.6,80l11.6,27.8C85.4,108.2,85.1,108.6,84.7,108.5z"/>
	<path class="st1" d="M73.6,80l-10.4,24.9L52.8,80l7.7-18.4l6.6,2.7L73.6,80z"/>
	<path class="st0" d="M48.8,115.3l-4.8-8.8c-0.4-0.7-1.1-1-1.9-0.8l-9.6,2.7c-0.4,0.1-0.7-0.3-0.6-0.6l20.3-48.4l17.7,7.4
		l-20.3,48.4C49.5,115.6,49,115.6,48.8,115.3L48.8,115.3z"/>
	<path class="st2" d="M62.9,16.4l5.9,4.9c1,0.9,2.3,1.4,3.7,1.5l7.6,0.7c3.2,0.3,5.8,2.9,6.1,6.1l0.7,7.6c0.1,1.3,0.7,2.6,1.5,3.7
		l4.9,5.9c2.1,2.5,2.1,6.1,0,8.6l-4.9,5.9c-0.9,1-1.4,2.3-1.5,3.7l-0.7,7.6c-0.3,3.2-2.9,5.8-6.1,6.1l-7.6,0.7
		c-1.3,0.1-2.6,0.7-3.7,1.5l-5.9,4.9c-2.5,2.1-6.1,2.1-8.6,0L48.3,81c-1-0.9-2.3-1.4-3.7-1.5L37,78.8c-3.2-0.3-5.8-2.9-6.1-6.1
		L30.2,65c-0.1-1.3-0.7-2.6-1.5-3.7l-4.9-5.9c-2.1-2.5-2.1-6.1,0-8.6l4.9-5.9c0.9-1,1.4-2.3,1.5-3.7l0.7-7.6
		c0.3-3.2,2.9-5.8,6.1-6.1l7.6-0.7c1.3-0.1,2.6-0.7,3.7-1.5l5.9-4.9C56.8,14.3,60.4,14.3,62.9,16.4z"/>
	<path class="st3" d="M81.1,51.1c0,12.4-10.1,22.5-22.5,22.5c-12.4,0-22.5-10.1-22.5-22.5c0-12.4,10.1-22.5,22.5-22.5
		C71,28.6,81.1,38.7,81.1,51.1L81.1,51.1z"/>
	<path class="st4" d="M58.6,28.6c-2,0-3.8,0.2-5.7,0.7c9.7,2.5,16.9,11.3,16.9,21.8s-7.2,19.3-16.9,21.8c1.8,0.5,3.7,0.7,5.7,0.7
		c12.4,0,22.5-10.1,22.5-22.5C81.1,38.7,71,28.6,58.6,28.6L58.6,28.6z"/>
	<path class="st5" d="M53.3,62.6c-0.8,0-1.6-0.3-2.2-0.9l-6.7-6.7c-1.2-1.2-1.2-3.2,0-4.5c1.2-1.2,3.2-1.2,4.5,0l4.5,4.5l12.4-12.4
		c1.2-1.2,3.2-1.2,4.5,0c1.2,1.2,1.2,3.2,0,4.5L55.6,61.6C55,62.2,54.2,62.6,53.3,62.6z"/>
</g>
</svg>
