<?xml version="1.0" encoding="utf-8"?>
<!-- Generator: Adobe Illustrator 29.8.2, SVG Export Plug-In . SVG Version: 9.03 Build 0)  -->
<svg version="1.0" id="Layer_1" xmlns="http://www.w3.org/2000/svg" xmlns:xlink="http://www.w3.org/1999/xlink" x="0px" y="0px"
	 viewBox="0 0 120 129" style="enable-background:new 0 0 120 129;" xml:space="preserve">
<style type="text/css">
	.st0{fill:#1D2C99;}
	.st1{fill:#111E5B;}
	.st2{fill:#3F88D8;}
	.st3{fill:#00C3FF;}
	.st4{fill:#0DD1FF;}
	.st5{fill:#FFFFFF;}
	.st6{fill-rule:evenodd;clip-rule:evenodd;fill:#3F88D8;}
	.st7{fill-rule:evenodd;clip-rule:evenodd;fill:#005C85;}
	.st8{fill-rule:evenodd;clip-rule:evenodd;fill:#00C3FF;}
	.st9{fill-rule:evenodd;clip-rule:evenodd;fill:#56A5E6;}
	.st10{fill-rule:evenodd;clip-rule:evenodd;fill:#EAF6FF;}
	.st11{fill-rule:evenodd;clip-rule:evenodd;fill:#BEC7CF;}
	.st12{fill-rule:evenodd;clip-rule:evenodd;fill:#FFBA57;}
	.st13{fill:#BEC7CF;}
	.st14{fill:#CF9646;}
	.st15{fill-rule:evenodd;clip-rule:evenodd;fill:#E6A74E;}
	.st16{fill-rule:evenodd;clip-rule:evenodd;fill:#D3DDE6;}
	.st17{fill-rule:evenodd;clip-rule:evenodd;fill:#25C73B;}
	.st18{fill-rule:evenodd;clip-rule:evenodd;fill:#FFB030;}
	.st19{fill:#D6E4E8;}
	.st20{fill:#BACED3;}
	.st21{fill:#FAAF42;}
	.st22{fill:#F8C460;}
	.st23{fill:#FFD9A6;}
	.st24{fill:#58595B;}
	.st25{fill:#6D6E71;}
	.st26{fill:#8E969B;}
	.st27{fill:#778084;}
	.st28{fill:#F29F5C;}
	.st29{fill:#D37D42;}
	.st30{fill:#F9C295;}
	.st31{fill:#E59F6A;}
	.st32{fill:#5C9CEE;}
	.st33{fill:#3580D3;}
	.st34{fill:#414042;}
	.st35{fill:#EBEEF2;}
	.st36{fill:#FFB030;}
	.st37{fill:#23468C;}
	.st38{fill:#3C5380;}
	.st39{fill:#00BF50;}
	.st40{fill:#FFC18C;}
	.st41{fill:#0DC7FF;}
	.st42{fill:#FFCB40;}
	.st43{fill:#F25B49;}
	.st44{fill:#FF9E26;}
	.st45{fill:#F2F5FF;}
</style>
<g>
	<circle class="st37" cx="63.3" cy="62.5" r="17.7"/>
	<path class="st37" d="M56.2,23.4c0,5.3-2.9,9.8-7.1,12.3c-2.1,1.2-4.5,1.9-7.1,1.9s-5-0.7-7.1-1.9c-4.2-2.4-7.1-7-7.1-12.3
		c0-7.8,6.4-14.2,14.2-14.2S56.2,15.6,56.2,23.4z"/>
	<g>
		<path class="st38" d="M35.7,40l-7.3,14.6c-1-0.6-2-1.2-3.2-1.6l7.3-14.6C33.5,39.1,34.6,39.6,35.7,40z M83.9,28
			c-0.4,1.1-0.7,2.3-0.9,3.5l-23.8-3.6c0.3-1.1,0.5-2.3,0.5-3.5L83.9,28z M102.3,51.7v17.9c-0.6-0.1-1.2-0.1-1.8-0.1s-1.2,0-1.8,0.1
			V51.7c0.6,0.1,1.2,0.1,1.8,0.1S101.7,51.8,102.3,51.7L102.3,51.7z M84.6,95.1l-14.8,5.5c-0.3-1.2-0.7-2.3-1.2-3.3l14.8-5.5
			C83.7,93,84.1,94.1,84.6,95.1z M41.8,91c-0.9,0.7-1.8,1.5-2.6,2.4l-9.4-9.9c0.9-0.7,1.8-1.5,2.6-2.4L41.8,91z M42.6,67.6l-6,1
			c-0.1-1.2-0.3-2.4-0.6-3.5l6-1C42.2,65.3,42.3,66.4,42.6,67.6z M54.7,43c-1.1,0.5-2.1,1.1-3.1,1.7l-2.7-4.9c1.1-0.4,2.1-1,3.1-1.7
			L54.7,43z M86.8,76c-0.7,0.9-1.4,1.9-2,2.9L80,75.7c0.7-0.9,1.4-1.9,2-2.9L86.8,76z M59.9,83.5l-1.2,4.9c-1.1-0.4-2.3-0.7-3.4-0.9
			l1.2-4.9C57.6,83,58.7,83.3,59.9,83.5z M87,45.6l-6.1,4.9c-0.7-1-1.4-1.9-2.3-2.8l6.4-5.1C85.6,43.7,86.3,44.7,87,45.6L87,45.6z"
			/>
	</g>
	<path class="st39" d="M49.1,28.8v7c-2.1,1.2-4.5,1.9-7.1,1.9s-5-0.7-7.1-1.9v-7c0-2,1.6-3.5,3.5-3.5h7.1
		C47.5,25.2,49.1,26.8,49.1,28.8z"/>
	<circle class="st40" cx="42" cy="19" r="4.4"/>
	<path class="st37" d="M114.8,34.1c0,5.3-2.9,9.8-7.1,12.3c-2.1,1.2-4.5,1.9-7.1,1.9s-5-0.7-7.1-1.9c-4.2-2.4-7.1-7-7.1-12.3
		c0-7.8,6.4-14.2,14.2-14.2S114.8,26.2,114.8,34.1z"/>
	<path class="st41" d="M107.7,39.4v7c-2.1,1.2-4.5,1.9-7.1,1.9s-5-0.7-7.1-1.9v-7c0-2,1.6-3.5,3.5-3.5h7.1
		C106.1,35.9,107.7,37.5,107.7,39.4z"/>
	<circle class="st40" cx="100.6" cy="29.7" r="4.4"/>
	<path class="st37" d="M114.8,87.3c0,5.3-2.9,9.8-7.1,12.3c-2.1,1.2-4.5,1.9-7.1,1.9s-5-0.7-7.1-1.9c-4.2-2.4-7.1-7-7.1-12.3
		c0-7.8,6.4-14.2,14.2-14.2S114.8,79.5,114.8,87.3z"/>
	<path class="st42" d="M107.7,92.6v7c-2.1,1.2-4.5,1.9-7.1,1.9s-5-0.7-7.1-1.9v-7c0-2,1.6-3.5,3.5-3.5h7.1
		C106.1,89.1,107.7,90.7,107.7,92.6z"/>
	<circle class="st40" cx="100.6" cy="82.9" r="4.4"/>
	<path class="st37" d="M66.9,105.1c0,5.3-2.9,9.8-7.1,12.3c-2.1,1.2-4.5,1.9-7.1,1.9s-5-0.7-7.1-1.9c-4.2-2.4-7.1-7-7.1-12.3
		c0-7.8,6.4-14.2,14.2-14.2S66.9,97.2,66.9,105.1z"/>
	<path class="st43" d="M59.8,110.4v7c-2.1,1.2-4.5,1.9-7.1,1.9s-5-0.7-7.1-1.9v-7c0-2,1.6-3.5,3.5-3.5h7.1
		C58.2,106.8,59.8,108.4,59.8,110.4z"/>
	<circle class="st40" cx="52.7" cy="100.6" r="4.4"/>
	<path class="st37" d="M33.1,69.6c0,5.3-2.9,9.8-7.1,12.3c-2.1,1.2-4.5,1.9-7.1,1.9s-5-0.7-7.1-1.9c-4.2-2.4-7.1-7-7.1-12.3
		c0-7.8,6.4-14.2,14.2-14.2S33.1,61.7,33.1,69.6z"/>
	<path class="st44" d="M26,74.9v7c-2.1,1.2-4.5,1.9-7.1,1.9s-5-0.7-7.1-1.9v-7c0-2,1.6-3.5,3.5-3.5h7.1C24.4,71.3,26,72.9,26,74.9z"
		/>
	<circle class="st40" cx="18.9" cy="65.1" r="4.4"/>
	<path class="st45" d="M71.2,78.4v-10c0-2.2-1.8-3.9-3.9-3.9h-7.9c-2.2,0-3.9,1.8-3.9,3.9v10c2.4,1.2,5,1.8,7.9,1.8
		S68.8,79.6,71.2,78.4z"/>
	<circle class="st40" cx="63.3" cy="57.5" r="4.9"/>
</g>
</svg>
