<?xml version="1.0" encoding="utf-8"?>
<!-- Generator: Adobe Illustrator 29.8.2, SVG Export Plug-In . SVG Version: 9.03 Build 0)  -->
<svg version="1.0" id="Layer_1" xmlns="http://www.w3.org/2000/svg" xmlns:xlink="http://www.w3.org/1999/xlink" x="0px" y="0px"
	 viewBox="0 0 120 129" style="enable-background:new 0 0 120 129;" xml:space="preserve">
<style type="text/css">
	.st0{fill:#1D2C99;}
	.st1{fill:#111E5B;}
	.st2{fill:#3F88D8;}
	.st3{fill:#00C3FF;}
	.st4{fill:#0DD1FF;}
	.st5{fill:#FFFFFF;}
	.st6{fill-rule:evenodd;clip-rule:evenodd;fill:#3F88D8;}
	.st7{fill-rule:evenodd;clip-rule:evenodd;fill:#005C85;}
	.st8{fill-rule:evenodd;clip-rule:evenodd;fill:#00C3FF;}
	.st9{fill-rule:evenodd;clip-rule:evenodd;fill:#56A5E6;}
	.st10{fill-rule:evenodd;clip-rule:evenodd;fill:#EAF6FF;}
	.st11{fill-rule:evenodd;clip-rule:evenodd;fill:#BEC7CF;}
	.st12{fill-rule:evenodd;clip-rule:evenodd;fill:#FFBA57;}
	.st13{fill:#BEC7CF;}
	.st14{fill:#CF9646;}
	.st15{fill-rule:evenodd;clip-rule:evenodd;fill:#E6A74E;}
	.st16{fill-rule:evenodd;clip-rule:evenodd;fill:#D3DDE6;}
	.st17{fill-rule:evenodd;clip-rule:evenodd;fill:#25C73B;}
	.st18{fill-rule:evenodd;clip-rule:evenodd;fill:#FFB030;}
	.st19{fill:#D6E4E8;}
	.st20{fill:#BACED3;}
	.st21{fill:#FAAF42;}
	.st22{fill:#F8C460;}
	.st23{fill:#FFD9A6;}
	.st24{fill:#58595B;}
	.st25{fill:#6D6E71;}
	.st26{fill:#8E969B;}
	.st27{fill:#778084;}
	.st28{fill:#F29F5C;}
	.st29{fill:#D37D42;}
	.st30{fill:#F9C295;}
	.st31{fill:#E59F6A;}
	.st32{fill:#5C9CEE;}
	.st33{fill:#3580D3;}
	.st34{fill:#414042;}
	.st35{fill:#EBEEF2;}
	.st36{fill:#FFB030;}
	.st37{fill:#23468C;}
	.st38{fill:#3C5380;}
	.st39{fill:#00BF50;}
	.st40{fill:#FFC18C;}
	.st41{fill:#0DC7FF;}
	.st42{fill:#FFCB40;}
	.st43{fill:#F25B49;}
	.st44{fill:#FF9E26;}
	.st45{fill:#F2F5FF;}
</style>
<g>
	<path class="st28" d="M92.2,70.2l-2.4-19.2l-4.4,0.5l0,0l-8.6-4.8c-0.9-0.5-2-0.7-3-0.6l-13.5,1.3c-1.7,0.2-3.1,1.1-4,2.5
		l-9.5,16.4c-0.7,1.2-0.2,2.8,1.2,3.3l0.4,0.1c0.8,0.3,1.5,0.4,2.3,0.5l-1.2,1.1L47,73.4l-6.9,5.9c-1.2,1.1-1.4,2.9-0.3,4.1l0.7,0.8
		c1.4,1.6,3.8,1.7,5.3,0.4l2.6,3c0.9,1,2.1,1.4,3.3,1.3c0.7-0.1,1.5-0.4,2-0.9l2.6,3c0.9,1,2.1,1.4,3.3,1.3c0.7-0.1,1.5-0.4,2-0.9
		l1.4,1.2c1.4,1.6,3.8,1.7,5.3,0.4l1.9-1.7l16.3-12.7l0,0l6.4,0L92.2,70.2L92.2,70.2z"/>
	<path class="st29" d="M85.2,73.6L85.2,73.6L68.9,86.3L66.9,88c-1.6,1.4-4,1.2-5.3-0.4l-1.4-1.2c-0.6,0.5-1.3,0.8-2,0.9
		c-1.2,0.1-2.5-0.3-3.3-1.3l-2.6-3c-0.6,0.5-1.3,0.8-2,0.9c-1.2,0.1-2.5-0.3-3.3-1.3l-2.6-3c-1.3,1.2-3.3,1.2-4.7,0.2
		c-0.7,1.1-0.7,2.5,0.2,3.6l0.7,0.8c1.4,1.6,3.8,1.7,5.3,0.4l2.6,3c0.9,1,2.1,1.4,3.3,1.3c0.7-0.1,1.5-0.4,2-0.9l2.6,3
		c0.9,1,2.1,1.4,3.3,1.3c0.7-0.1,1.5-0.4,2-0.9l1.4,1.2c1.4,1.6,3.8,1.7,5.3,0.4l1.9-1.7l16.3-12.7l0,0l6.4,0l-0.7-5.8L85.2,73.6
		L85.2,73.6z"/>
	<path class="st30" d="M88.2,81.9l-8.7-7.5L77,72.3l-1.7-1.5l-7.5-6.4l0.9-7.3c0.3-2.5-1.3-4.8-3.7-5.5L48.7,47
		c-1.7-0.5-3.5,0.3-4.4,1.9l-2,4l-8.8-0.6l-2.3,19.2l-1,8.3l8.6,0.6l0,0l17.9,15.4l1.9,1.7c1.6,1.4,4,1.2,5.3-0.4l2.6-3
		c0.6,0.5,1.3,0.8,2,0.9c1.2,0.1,2.5-0.3,3.3-1.3l2.6-3c0.6,0.5,1.3,0.8,2,0.9c1.2,0.1,2.5-0.3,3.3-1.3l2.6-3c1.6,1.4,4,1.2,5.3-0.4
		l0.7-0.8C89.5,84.8,89.4,83,88.2,81.9L88.2,81.9z"/>
	<path class="st31" d="M88.2,81.9l-2.7-2.3c0.9,1.1,0.8,2.8-0.1,3.9l-0.7,0.9c-1.4,1.7-4,1.9-5.7,0.4L76.2,88
		c-0.9,1-2.2,1.5-3.5,1.4c-0.8-0.1-1.5-0.4-2.1-0.9l-2.8,3.2c-0.9,1-2.2,1.5-3.5,1.4c-0.8-0.1-1.5-0.4-2.1-0.9l-2.8,3.2
		c-0.5,0.6-1.2,1-1.9,1.2l1.2,1c1.6,1.4,4,1.2,5.3-0.4l2.6-3c0.6,0.5,1.3,0.8,2,0.9c1.2,0.1,2.5-0.3,3.3-1.3l2.6-3
		c0.6,0.5,1.3,0.8,2,0.9c1.2,0.1,2.5-0.3,3.3-1.3l2.6-3c1.6,1.4,4,1.2,5.3-0.4l0.7-0.8C89.5,84.8,89.4,83,88.2,81.9z"/>
	<path class="st31" d="M83.3,86.3l-4.8-4.1c-0.6-0.5-1.4-0.4-1.9,0.2c-0.5,0.6-0.4,1.4,0.1,1.9l4.8,4.1l0.9-1
		c0.3,0.3,0.7,0.5,1.2,0.7C84,87.4,83.8,86.7,83.3,86.3L83.3,86.3z M75.7,91.4c0.3-0.6,0.2-1.3-0.3-1.7l-4.3-3.7
		c-0.6-0.5-1.4-0.4-1.9,0.2c-0.5,0.6-0.4,1.4,0.1,1.9l4.3,3.7l0,0l0.9-1C74.9,91,75.3,91.2,75.7,91.4L75.7,91.4z"/>
	<path class="st28" d="M39.3,80.4l-1,1.4c-1.1,1.5-0.8,3.6,0.7,4.7c1.5,1.1,3.6,0.8,4.7-0.7l1-1.4c1.1-1.5,0.8-3.6-0.7-4.7
		C42.5,78.6,40.4,78.9,39.3,80.4z M45.6,83.3l-2,2.6c-1.1,1.5-0.8,3.6,0.7,4.7c1.5,1.1,3.6,0.8,4.7-0.7l2-2.6
		c1.1-1.5,0.8-3.6-0.7-4.7C48.8,81.5,46.7,81.8,45.6,83.3z"/>
	<path class="st28" d="M51.7,86.4L49,89.9c-1.1,1.5-0.8,3.6,0.7,4.7c1.5,1.1,3.6,0.8,4.7-0.7l2.7-3.5c1.1-1.5,0.8-3.6-0.7-4.7
		C54.9,84.6,52.8,84.9,51.7,86.4z"/>
	<path class="st28" d="M57.2,90.3L54.4,94c-1.1,1.5-0.8,3.6,0.7,4.7c1.5,1.1,3.6,0.8,4.7-0.7l2.8-3.7c1.1-1.5,0.8-3.6-0.7-4.7
		C60.5,88.5,58.3,88.8,57.2,90.3L57.2,90.3z M85.4,51.6l-8.6-4.8c-0.9-0.5-2-0.7-3-0.6l-13.5,1.3c-1.7,0.2-3.1,1.1-4,2.5l-9.5,16.4
		c-0.7,1.2-0.2,2.8,1.2,3.3l0.4,0.1c3.5,1.3,7.4,0.2,9.7-2.8l3.7-4.8c0,0,8.8,10.2,18.5-1.7"/>
	<path class="st32" d="M109.2,81.1l-4.5-36.4c-0.1-0.7-0.8-1.3-1.5-1.2c0,0,0,0,0,0l-10.5,1.3c-2.7,0.3-4.7,2.8-4.3,5.5L92,79.6
		c0.3,2.5,2.5,4.4,4.9,4.4c0.2,0,0.4,0,0.6,0l10.5-1.3C108.7,82.5,109.3,81.9,109.2,81.1L109.2,81.1z"/>
	<path class="st33" d="M109.2,81.1l-0.5-4c-0.2,0.3-0.6,0.6-1,0.6l-11,1.4c-0.2,0-0.4,0-0.6,0c-1.8,0-3.5-1-4.5-2.5l0.4,3
		c0.3,2.5,2.5,4.4,4.9,4.4c0.2,0,0.4,0,0.6,0l10.5-1.3C108.7,82.5,109.3,81.9,109.2,81.1C109.2,81.1,109.2,81.1,109.2,81.1z"/>
	<path class="st34" d="M32.8,44.8l-10.5-1.3c-0.7-0.1-1.4,0.4-1.5,1.2c0,0,0,0,0,0l-4.5,36.4c-0.1,0.7,0.4,1.4,1.2,1.5L28,83.9
		c0.2,0,0.4,0,0.6,0c2.5,0,4.6-1.8,4.9-4.4l3.6-29.2C37.5,47.6,35.5,45.2,32.8,44.8z"/>
	<path class="st24" d="M16.3,81.1l0.5-4c0.2,0.3,0.6,0.6,1,0.6l11,1.4c0.2,0,0.4,0,0.6,0c1.8,0,3.5-1,4.5-2.5l-0.4,3
		c-0.3,2.5-2.5,4.4-4.9,4.4c-0.2,0-0.4,0-0.6,0l-10.5-1.3C16.8,82.5,16.3,81.9,16.3,81.1C16.3,81.1,16.3,81.1,16.3,81.1z"/>
	<circle class="st35" cx="100.5" cy="75.3" r="2.6"/>
	<circle class="st35" cx="24.9" cy="75.3" r="2.6"/>
</g>
<g>
	<path class="st36" d="M63.8,29.2v6.4c0,1.8-1.4,3.2-3.2,3.2s-3.2-1.4-3.2-3.2v-6.4c0-1.8,1.4-3.2,3.2-3.2S63.8,27.4,63.8,29.2z
		 M48.2,40.6c-1.5,0.9-3.5,0.4-4.4-1.2l-3.2-5.6c-0.9-1.5-0.4-3.5,1.2-4.4c1.5-0.9,3.5-0.4,4.4,1.2l3.2,5.6
		C50.3,37.8,49.7,39.7,48.2,40.6z M80.6,33.9l-3.2,5.6c-0.9,1.5-2.9,2.1-4.4,1.2c-1.5-0.9-2.1-2.9-1.2-4.4l3.2-5.6
		c0.9-1.5,2.9-2.1,4.4-1.2S81.4,32.3,80.6,33.9z"/>
</g>
</svg>
