<?xml version="1.0" encoding="UTF-8"?>
<svg id="Layer_1" xmlns="http://www.w3.org/2000/svg" version="1.1" viewBox="0 0 300 131">
  <!-- Generator: Adobe Illustrator 29.8.2, SVG Export Plug-In . SVG Version: 2.1.1 Build 3)  -->
  <defs>
    <style>
      .st0 {
        fill: #001e44;
      }

      .st1 {
        fill: #e53855;
      }
    </style>
  </defs>
  <path class="st0" d="M156.2,63.7c-7.3,14.1-4.1,16.1,3.5,16.1s12.7-.2,20.5-15c5.8-11.1,1.7-13.8-6-13.8s-12.4,1.7-18.2,12.8h.1ZM194,66.1c-10.2,20.1-26.3,20.6-36.8,20.6-20.1,0-25.2-4.2-15.7-23.6,8-16.5,18.8-19.2,36.5-19.2s26.2,2.1,16.1,22.1v.2Z"/>
  <path class="st0" d="M205.2,85.2c-2.5.9-4.9,1.4-7.9,1.4s-4.9-.5-6.8-1.4c-.3,0,0-.6,0-.6,1.9-3.6,12.5-25.4,15-30,2.5-5,8.7-10.7,18.2-10.7h25.7c0,.8-.1,1.5-.4,2.3-.6,1.7-1.5,3.6-2.6,4.8h-17.5c-2.3,0-6.5,1.1-9.5,6.8-2.6,5.3-11.6,23.6-13.4,27,0,0-.3.5-.7.6v-.2Z"/>
  <path class="st0" d="M123.7,82.8l-2.8-2c8-4.2,9.9-8.6,13.1-14.7,10-20.1-.3-22.1-16.1-22.1s-28.5,2.7-36.5,19.1c-9.5,19.2-4.4,23.6,15.7,23.6s11.2.2,11.2.2c-6.1-3-10.8-7.4-10.8-7.4-7.1-.6-7.6-3.9-1.3-15.8,5.7-11.1,10.9-12.8,18.2-12.8s11.8,2.7,6,13.8c-3.8,7.1-4.1,9-7.1,11-.6-.3-1.6-.9-4.8-3-2.2-1.4-3.2-2.1-4.8-.6-.4.5-.7.6-1,1.2-1.3,1.8-2,3.9-.7,5,.3.3,1.9,2.1,12.7,8,0,0,1.6.9,2.6,1.4,2.3,1.2,3.9,2.4,6-.5,1.7-2.6,1.3-3.9.7-4.5v.2Z"/>
  <path class="st1" d="M72.7,33.3c0-4.5,3.5-8.3,8-8.3s8,3.6,8,8.3-3.5,8.3-8,8.3-8-3.6-8-8.3Z"/>
  <path class="st0" d="M54.5,50.5s-3.5,3.2-3.5,5.1,1.7,1.8,2.9.6c.4-.5,1.2-1.1,2.5-2.1,5.5-4.1,11.6-3.3,10.9.5-3.6,13.8-8,24.2-9,28.5-.6,2.6-1.7,5,0,6.6.6.6,2.5,1.2,4.2-2.4,4.7-9.2,15.9-30,15.9-30,.9-1.7,7.3-11.7-4.8-13.1-.9,0-10.9-1.8-19.2,6.5v-.2Z"/>
  <path class="st0" d="M168.7,101.3c1.6-4.4,5.1-7.5,10-7.5s5.7,2.1,4.8,5.7h-1.9c.7-2.9-.3-4.2-3.5-4.2s-6.1,2.1-7.6,6c-1.5,4.1-.6,6,3.1,6s5.5-1.7,6.8-4.5h1.9c-1.6,3.6-4.5,6-9.2,6s-6.1-3.2-4.5-7.5Z"/>
  <path class="st0" d="M193.8,108.3h-2.3l-2.3-5.9-6.5,5.9h-2.2l8.1-7.2-2.8-7.1h2.2l2.2,5.7,6.4-5.7h2.2l-7.9,7.1,2.8,7.2h.1Z"/>
  <path class="st0" d="M208.7,104.6c-.9,2.4-2.9,3.9-6,3.9h-7.1l5.2-14.3h7.1c3.1,0,3.6,1.5,2.9,3.6-.7,2.1-2.5,3.2-3.9,3.3,1.5.2,2.5,1.4,1.6,3.6v-.2ZM202.1,95.6l-1.7,4.8h4.8c2,0,3.2-.9,3.8-2.4.6-1.5.3-2.4-1.7-2.4h-5.1ZM203,107c2,0,3.2-1.1,3.6-2.6.4-1.5,0-2.7-2-2.7h-4.8l-1.9,5.3h5.1Z"/>
  <path class="st0" d="M224.2,98.3c-.9,2.3-2.8,4.2-6.1,4.2h-4.8l-2.2,5.9h-1.9l5.2-14.3h6.7c3.2,0,3.6,1.8,2.9,4.2h.1ZM218.4,101c2.2,0,3.3-1.1,3.9-2.7.6-1.7.3-2.7-1.9-2.7h-4.5l-2,5.4h4.5Z"/>
  <path class="st0" d="M224.7,101.3c1.6-4.2,4.9-7.5,10-7.5s6.1,3.3,4.5,7.5c-1.6,4.4-4.9,7.5-10,7.5s-6.1-3.2-4.5-7.5ZM229.6,107.3c3.8,0,6.1-2,7.6-6,1.5-4.1.6-6-3.1-6s-6.1,2-7.6,6c-1.5,4.1-.6,6,3.1,6Z"/>
  <path class="st0" d="M244.7,94.1v.5h-1.5v3.8h-.4v-3.8h-1.5v-.5h3.5-.1Z"/>
  <path class="st0" d="M249.7,98.3h-.4v-3.8l-1.3,3.8h-.7l-1.3-3.8v3.8h-.4v-4.2h.9l1.3,3.8,1.3-3.8h.9v4.2h-.1Z"/>
</svg>