<?xml version="1.0" encoding="UTF-8"?>
<svg id="Layer_1" xmlns="http://www.w3.org/2000/svg" xmlns:xlink="http://www.w3.org/1999/xlink" version="1.1" viewBox="0 0 570 515">
  <!-- Generator: Adobe Illustrator 29.8.2, SVG Export Plug-In . SVG Version: 2.1.1 Build 3)  -->
  <defs>
    <style>
      .st0 {
        fill: url(#linear-gradient2);
      }

      .st1 {
        fill: url(#linear-gradient1);
      }

      .st2 {
        fill: url(#linear-gradient3);
      }

      .st3 {
        fill: #012f72;
      }

      .st4 {
        fill: url(#radial-gradient);
      }

      .st5 {
        fill: url(#linear-gradient);
      }

      .st6 {
        isolation: isolate;
      }

      .st7 {
        fill: #053f22;
      }

      .st8 {
        fill: #fff;
      }

      .st9 {
        mix-blend-mode: color-dodge;
      }

      .st10 {
        fill: url(#radial-gradient1);
      }

      .st11 {
        fill: #0e4959;
      }
    </style>
    <linearGradient id="linear-gradient" x1="312.7" y1="230.3" x2="101.9" y2="468.8" gradientTransform="translate(0 515) scale(1 -1)" gradientUnits="userSpaceOnUse">
      <stop offset="0" stop-color="#012f72"/>
      <stop offset=".2" stop-color="#013278"/>
      <stop offset=".4" stop-color="#043b8b"/>
      <stop offset=".6" stop-color="#0749a9"/>
      <stop offset=".7" stop-color="#094fb5"/>
    </linearGradient>
    <linearGradient id="linear-gradient1" x1="82.5" y1="-42.4" x2="261" y2="187.7" gradientTransform="translate(0 515) scale(1 -1)" gradientUnits="userSpaceOnUse">
      <stop offset="0" stop-color="#27aae1"/>
      <stop offset=".9" stop-color="#006dfa"/>
    </linearGradient>
    <linearGradient id="linear-gradient2" x1="283.2" y1="246.4" x2="519.3" y2="246.4" gradientTransform="translate(0 515) scale(1 -1)" gradientUnits="userSpaceOnUse">
      <stop offset="0" stop-color="#009444"/>
      <stop offset="0" stop-color="#0a9743"/>
      <stop offset=".4" stop-color="#27a242"/>
      <stop offset=".7" stop-color="#56b240"/>
      <stop offset="1" stop-color="#8dc63f"/>
    </linearGradient>
    <radialGradient id="radial-gradient" cx="-234.2" cy="502.6" fx="-234.2" fy="502.6" r="157.7" gradientTransform="translate(392 115.5) rotate(-13.6) scale(.6 .3) skewX(-5.8)" gradientUnits="userSpaceOnUse">
      <stop offset="0" stop-color="#cf0"/>
      <stop offset="1" stop-color="#096"/>
    </radialGradient>
    <radialGradient id="radial-gradient1" cx="-417.8" cy="947.7" fx="-417.8" fy="947.7" r="165.9" gradientTransform="translate(536.3 -75.8) rotate(-13.6) scale(.6 .3) skewX(-5.8)" xlink:href="#radial-gradient"/>
    <linearGradient id="linear-gradient3" x1="282.1" y1="642.4" x2="282.1" y2="710.8" gradientTransform="translate(0 -439.8)" gradientUnits="userSpaceOnUse">
      <stop offset="0" stop-color="aqua"/>
      <stop offset="1" stop-color="#0054ff"/>
    </linearGradient>
  </defs>
  <g class="st6">
    <g id="Layer_11" data-name="Layer_1">
      <g>
        <path class="st5" d="M396.9,51.7c-52.5-29-115.9-38.1-178.1-20.5C93.4,66.6,20.4,196.9,55.8,322.4l227.1-64.1,114-206.6h0Z"/>
        <path class="st1" d="M55.7,322.8c35.4,125.4,165.8,198.4,291.2,163.1l-64.1-227.1-227.1,64.1h0Z"/>
        <path class="st0" d="M397.2,51.8l-114,206.6,64.1,227.1c125.4-35.4,198.4-165.8,163.1-291.2-17.8-63.2-59.8-113.1-113.1-142.5h-.1Z"/>
      </g>
      <g class="st9">
        <path class="st3" d="M354.1,129.4c-32.8-18.1-72.4-23.8-111.2-12.8-78.3,22.1-123.9,103.5-101.8,181.9l141.8-40,71.2-129h0Z"/>
        <path class="st11" d="M141,298.6c22.1,78.3,103.5,123.9,181.9,101.8l-40-141.8-141.8,40h0Z"/>
        <path class="st7" d="M354.3,129.4l-71.2,129,40,141.8c78.3-22.1,123.9-103.5,101.8-181.9-11.1-39.5-37.3-70.6-70.6-89h0Z"/>
      </g>
      <circle class="st8" cx="283" cy="258.5" r="91.5"/>
      <g>
        <path class="st8" d="M96.5,240.3c-8.6-1.4-13.6-8.9-12.2-17.6,1.4-8.7,8.5-14.2,17.2-12.7,8.6,1.4,13.6,8.9,12.2,17.6-1.4,8.7-8.5,14.2-17.2,12.8h0ZM100.3,217.5c-4.6-.8-8.7,1.7-9.5,6.4s2.3,8.3,6.9,9.1,8.7-1.7,9.5-6.4-2.4-8.3-6.9-9h0Z"/>
        <path class="st8" d="M116.6,209.9l-27.2-9.2,4.6-13.6c2.1-6.1,7.3-8.1,12.3-6.4,4.9,1.7,7.9,6.4,5.8,12.5l-2.2,6.6,9.1,3.1-2.4,7h0ZM103.8,187.8c-1.9-.6-3.5.5-4.1,2.4l-1.9,5.6,5.8,2,1.9-5.6c.6-1.9,0-3.7-1.8-4.4h0Z"/>
        <path class="st8" d="M125.5,184.7l-25.7-12.9,9.5-18.8,5.8,2.9-6.2,12.2,4,2,6-11.9,5.8,2.9-6,11.9,4.3,2.2,6.2-12.2,5.8,2.9-9.5,18.8h0Z"/>
        <path class="st8" d="M145.9,149.8l-10.7-1.6-2.2,3.1,7.9,5.5-4.3,6.1-23.6-16.5,8.3-11.8c3.7-5.2,9.2-5.8,13.6-2.7,4.1,2.9,4.6,6.9,3.8,9.6l12,1.2-4.9,7h0ZM130.6,138.1c-1.6-1.1-3.4-.4-4.6,1.2l-3.4,4.8,5.1,3.5,3.4-4.8c1.1-1.6,1.2-3.6-.5-4.7Z"/>
        <path class="st8" d="M166.1,126.6l-4-1.8-7.9,8.2,2,3.9-5.8,6.1-13.2-27.7,6.5-6.7,28.2,12.1-5.8,6.1v-.2ZM145.8,116.8l5.3,10.1,5.1-5.2-10.3-4.9h-.1Z"/>
        <path class="st8" d="M176.1,117.8l-13.9-17.5-6.3,5-4-5.1,18.4-14.6,4,5.1-6.3,5,13.9,17.5-5.8,4.6h0Z"/>
        <path class="st8" d="M190.4,106.8l-14.7-24.7,18.1-10.7,3.3,5.6-11.8,7,2.3,3.9,11.5-6.8,3.3,5.6-11.5,6.8,2.5,4.2,11.8-7,3.3,5.6-18.1,10.7v-.2Z"/>
      </g>
      <g>
        <path class="st8" d="M444.5,387.5l-13.4-13.5,8.2,18.6-2.3,2.3-18.6-8.4,13.4,13.5-5.3,5.2-20.2-20.4,7.3-7.2,15.4,7-6.9-15.5,7.3-7.2,20.2,20.4-5.3,5.2h.2Z"/>
        <path class="st8" d="M465.9,358.6l-4.2-1.1-6.2,9.5,2.7,3.5-4.6,7-18.1-24.8,5.1-7.8,30,6.7-4.6,7h0ZM444.1,352.8l7.1,9,4-6.1-11-2.9h-.1Z"/>
        <path class="st8" d="M472,347.2l-25.9-12.4,3.2-6.7,25.9,12.4-3.2,6.7Z"/>
        <path class="st8" d="M484.7,315l-19.6,6.5,15.9,5.1-2.3,7.1-27.4-8.8,2.3-7.3,18.6-6.3-15.1-4.8,2.3-7.1,27.4,8.8-2.2,6.8h.1Z"/>
        <path class="st8" d="M489.3,293.5l-22.1-3-1.1,8-6.4-.9,3.1-23.3,6.4.9-1.1,8,22.1,3-1,7.3h.1Z"/>
        <path class="st8" d="M491.2,254.9l-4.1,1.5.2,11.3,4.2,1.3.2,8.4-29-10.2-.2-9.4,28.5-11.4.2,8.4h0ZM469.9,262.5l10.9,3.4-.2-7.3-10.7,3.9h0Z"/>
        <path class="st8" d="M489.8,242l-28.4,4.4-1.1-7.3,28.4-4.4,1.1,7.3Z"/>
        <path class="st8" d="M482,208.3l-12.4,16.4,15.9-4.8,2.1,7.1-27.5,8.3-2.2-7.3,11.8-15.7-15.2,4.6-2.1-7.1,27.5-8.3,2.1,6.9h0Z"/>
      </g>
      <g>
        <path class="st8" d="M124,373.3l23.8-16.1,6.8,10c5.1,7.5,4.2,15.9-3.2,20.9s-15.6,2.7-20.6-4.8l-6.8-10ZM147.2,381.8c3.7-2.5,5-6.6,2.1-11l-2.6-3.9-13.1,8.9,2.6,3.9c2.8,4.2,7.5,4.6,11,2.2h0Z"/>
        <path class="st8" d="M144.2,401.4l20.6-20,14.7,15.1-4.6,4.5-9.5-9.8-3.2,3.1,9.3,9.6-4.6,4.5-9.3-9.6-3.5,3.4,9.5,9.8-4.6,4.5-14.7-15.1h0Z"/>
        <path class="st8" d="M165.2,416.8l6.6-2.3c.4,2.9,2,6.2,5.1,8.6,2,1.5,3.8,1.7,4.6.6,2.3-3-12.6-10.2-6-19.1,2.9-3.9,8.7-4.9,14.6-.5,3.7,2.8,6.1,6.3,7,10.2l-6.6,2c-.7-3.1-2.7-5.7-4.9-7.4-1.7-1.3-2.9-1.3-3.7-.3-2.1,2.8,12.5,10.4,6.1,19-3.5,4.6-9.2,5.2-15.4.5-4.7-3.5-6.8-7.4-7.5-11.3h0Z"/>
        <path class="st8" d="M187.6,437.5l14.3-24.9,6.4,3.7-14.3,24.9-6.4-3.7Z"/>
        <path class="st8" d="M204.7,431.2c3.4-8.5,12.1-11.1,20-7.9,5.9,2.4,8.3,7,8.7,11.1l-7,.7c-.3-2.2-1.7-4.6-4.2-5.7-4.4-1.8-8.8.3-10.6,4.7-1.8,4.4,0,9,4.3,10.7,2,.8,4.3.8,5.6.4l.8-2.1-6-2.4,2.5-6,12.9,5.2-4.3,10.6c-4.1,2-8.9,2.4-13.9.4-7.9-3.2-12.3-11.2-8.8-19.6h0Z"/>
        <path class="st8" d="M252.4,461.2l-8.8-18.7-3.2,16.3-7.3-1.4,5.5-28.2,7.5,1.5,8.4,17.8,3-15.5,7.3,1.4-5.5,28.2-7-1.4h.1Z"/>
      </g>
      <g>
        <path class="st8" d="M166.8,315.6l14.1-7.8,1.4,2.5-14.1,7.8-1.4-2.5Z"/>
        <path class="st8" d="M176.4,331.3l4.9-13.4-9.6,6.4-1.6-2.3,13.4-9,1.6,2.4-4.7,13.1,9.3-6.2,1.6,2.3-13.4,9-1.5-2.3Z"/>
        <path class="st8" d="M188.2,345.7l3.2-13.9-8.7,7.6-1.9-2.1,12.1-10.6,1.9,2.2-3,13.6,8.4-7.3,1.9,2.1-12.1,10.6-1.8-2.1h0Z"/>
        <path class="st8" d="M198.2,344.7c3.2-3.6,8.1-4,11.7-.8,3.6,3.2,3.9,8.1.7,11.7s-8.1,4-11.7.8c-3.6-3.2-3.9-8.1-.7-11.7ZM208.4,353.7c2.2-2.5,2.3-5.8-.2-7.9-2.5-2.2-5.7-1.7-7.9.8s-2.3,5.7.2,7.9c2.4,2.1,5.7,1.6,7.9-.8Z"/>
        <path class="st8" d="M211.9,366.3l3.9-16.9,2.7,1.8-3.3,13.5,11.4-8,2.7,1.8-14.3,9.7-2.9-2h-.2Z"/>
        <path class="st8" d="M231.5,378l.4-3.3-6.5-3.5-2.5,2.2-2.8-1.5,13.2-11.2,3.1,1.7-2,17.2-2.8-1.5h0ZM233.4,364l-6.2,5.4,5.1,2.7,1.1-8.2h0Z"/>
        <path class="st8" d="M239,381.4l5.2-12.6-4.5-1.9,1-2.3,11.6,4.8-1,2.3-4.5-1.9-5.2,12.6-2.6-1.1h0Z"/>
        <path class="st8" d="M249.1,385.3l5.1-15.3,2.7.9-5.1,15.3-2.7-.9h0Z"/>
        <path class="st8" d="M260.4,388.6l-2.4-17.2,3.1.8,1.7,13.8,7.8-11.5,3.1.8-10,14.2-3.4-.8h0Z"/>
        <path class="st8" d="M272.8,391.3l2-16,11,1.4-.3,2.5-8.2-1-.5,4.1,8,1-.3,2.5-8-1-.6,4.5,8.2,1-.3,2.5-11-1.4h0Z"/>
      </g>
      <g>
        <path class="st8" d="M183.4,215.3l-6.9,1.1-1,2.6,5.6,2.2-1,2.6-15-5.9,2.6-6.6c1.2-3,3.8-4.2,6.6-3.1,2.7,1,3.4,3.4,3,5.3l7.3-1.4-1.2,3.1h0ZM173.1,211c-1.4-.6-2.8.2-3.4,1.6l-1.4,3.6,4.8,1.9,1.4-3.6c.6-1.5,0-2.9-1.4-3.5h0Z"/>
        <path class="st8" d="M185.6,210.2l-14.3-7.4,5.1-9.8,2.2,1.1-3.8,7.3,3.7,1.9,3.7-7.1,2.2,1.1-3.7,7.1,4,2.1,3.8-7.3,2.2,1.1-5.1,9.8h0Z"/>
        <path class="st8" d="M191.9,198.4l-13.5-8.8,1.5-2.4,11.4,7.4,3.9-6,2.1,1.4-5.4,8.3h0Z"/>
        <path class="st8" d="M198.7,188.3l-12.9-9.7,1.7-2.3,12.9,9.7-1.7,2.3Z"/>
        <path class="st8" d="M209.8,175.2l-3.1-1.2-5,5.5,1.5,3-2.2,2.4-7.7-15.5,2.4-2.6,16.2,6.1-2.2,2.4h.1ZM196.7,169.9l3.8,7.3,3.9-4.3-7.6-3h0Z"/>
        <path class="st8" d="M212.9,172l-10.5-12.2,6-5.2c2.3-1.9,4.7-1.6,6.2.1,1.3,1.5,1.2,3.4.3,4.6,1.5-.9,3.7-.5,4.9,1,1.6,1.9,1.6,4.4-.7,6.4l-6.2,5.3h0ZM212.7,157c-.8-.9-2-1-3.1-.1l-3.5,3,2.7,3.2,3.5-3c1.1-.9,1.2-2.1.4-3h0ZM217.4,162c-.8-.9-2.1-1.2-3.3-.1l-3.5,3,2.9,3.4,3.5-3c1.2-1,1.3-2.2.4-3.3h0Z"/>
        <path class="st8" d="M224.5,162.4l-9.1-13.3,2.3-1.6,7.7,11.3,5.9-4,1.4,2.1-8.2,5.6h0Z"/>
        <path class="st8" d="M234.5,155.7l-7.7-14.2,9.7-5.3,1.2,2.2-7.2,3.9,2,3.7,7.1-3.8,1.2,2.2-7.1,3.8,2.1,4,7.2-3.9,1.2,2.2-9.7,5.3h0Z"/>
      </g>
      <g>
        <path class="st8" d="M346.6,375.3l-10-12.7,8.7-6.8,1.5,2-6.5,5.1,2.6,3.3,6.3-5,1.5,2-6.3,5,2.8,3.5,6.5-5.1,1.5,2-8.7,6.8h.1Z"/>
        <path class="st8" d="M366.4,358.4l-14-2.7,7.8,8.5-2.1,1.9-11-11.8,2.1-2,13.6,2.6-7.6-8.2,2.1-1.9,11,11.8-2,1.9h.1Z"/>
        <path class="st8" d="M371.4,353.4l-12-10.8,7.4-8.2,1.8,1.7-5.5,6.1,3.1,2.8,5.4-6,1.8,1.7-5.4,6,3.3,3,5.5-6.1,1.8,1.7-7.4,8.2h.2Z"/>
        <path class="st8" d="M386.8,335l-7-.8-1.7,2.3,4.8,3.6-1.7,2.3-12.9-9.7,4.3-5.7c1.9-2.5,4.8-3,7.2-1.2,2.3,1.7,2.4,4.2,1.5,5.9l7.4.7-2,2.6h.1ZM378.1,328.1c-1.2-.9-2.7-.6-3.7.7l-2.3,3.1,4.1,3.1,2.3-3.1c1-1.3.9-2.8-.4-3.8h0Z"/>
        <path class="st8" d="M383.7,325.7c-4.4-2.6-5.2-7.5-2.8-11.6,1.6-2.7,4-3.7,6.2-3.8v2.7c-1.5.1-3.1,1-4,2.5-1.6,2.7-.8,6,2.1,7.8,2.9,1.7,6.2,1,7.9-1.8.8-1.4.9-3,.7-4l-2.1-1.3-2.5,4.2-2.1-1.3,3.9-6.6,5.2,3.1c.7,2.3.6,4.8-.9,7.2-2.4,4-7.2,5.6-11.5,3h-.1Z"/>
        <path class="st8" d="M401.9,309.3l-6.1-2.7-11.2,1.8,1.3-3,8.1-1.2-4.5-6.9,1.3-3,6,9.6,6.1,2.7-1.2,2.6h.2Z"/>
        <path class="st8" d="M400.5,300.7l-2-.8,2-5.4,2,.8-2,5.4Z"/>
        <path class="st8" d="M408.1,293.8l-15.5-4.3,2.9-10.6,2.4.7-2.2,7.9,4,1.1,2.1-7.8,2.4.7-2.1,7.8,4.3,1.2,2.2-7.9,2.4.7-2.9,10.7v-.2Z"/>
        <path class="st8" d="M411.8,279.1l-15.9-2.4,1.7-10.9,2.5.4-1.2,8.1,4.1.6,1.2-8,2.5.4-1.2,8,6.9,1.1-.4,2.8h-.2Z"/>
        <path class="st8" d="M413.8,264.4l-16.1-.5.4-11h2.5l-.3,8.3h4.2c0,.1.3-7.9.3-7.9h2.5l-.3,8.1,7,.2v2.8h-.2Z"/>
        <path class="st8" d="M413.9,249.9l-16.1.9-.2-2.8,16.1-.9.2,2.8Z"/>
        <path class="st8" d="M405.7,244.5c-4.9.7-8.8-2.4-9.5-7.1-.5-3.2.9-5.5,2.6-6.9l1.6,2.2c-1.2,1-2,2.7-1.7,4.4.5,3.2,3.2,5.1,6.6,4.6,3.3-.5,5.4-3.2,4.9-6.4-.3-1.7-1.5-3.1-2.9-3.7l.8-2.6c2.1.9,4.1,2.7,4.6,5.9.7,4.7-2.1,8.9-7,9.6Z"/>
        <path class="st8" d="M410.5,225.5l-15.7,3.9-.7-2.7,15.7-3.9.7,2.7Z"/>
        <path class="st8" d="M408.8,218.7l-15.3,5.1-3.5-10.5,2.4-.8,2.6,7.8,4-1.3-2.5-7.7,2.4-.8,2.5,7.7,4.3-1.4-2.6-7.8,2.4-.8,3.5,10.5h-.2Z"/>
        <path class="st8" d="M399.3,194.2l-7,12.4,10.5-4.8,1.2,2.6-14.7,6.7-1.2-2.6,6.8-12.1-10.2,4.6-1.2-2.6,14.7-6.7,1.1,2.5h0Z"/>
        <path class="st8" d="M394.2,184.5l-11.8,6.8,2.4,4.2-2.2,1.2-6.3-10.9,2.2-1.2,2.4,4.2,11.8-6.8,1.4,2.5h.1Z"/>
      </g>
      <g id="COLOR">
        <g id="Layer0_3_MEMBER_0_FILL">
          <path class="st4" d="M227.3,258.4l1.8-3.7c-7.8,3.9-14.1,7.9-18.6,11.8-9.9,8.7-10,14.9,0,18.7,11,4.3,28.1,4.4,51.3.3h-31.9v-7.8c-.7-.2-1.5-.3-2.2-.5-.2,0-.5-.2-.7-.2-10.1-2.7-11.6-7.6-4.2-14.7,1.3-1.2,2.9-2.6,4.7-3.9M282.9,235.9c-.2,0-.6.2-.8.2-8.7,2.1-17.1,4.5-25.1,7.2h1.5c7.7-2.7,15.9-5.2,24.5-7.4M353.7,232c-.3-.2-.7-.2-1.1-.4,7.5,3.3,6.9,8.5-1.7,15.5-7.4,6.1-18,11.6-31.6,16.5v4.9h3.7c13.1-5.3,23.4-11.3,30.9-17.8,9.7-8.6,9.7-14.8-.2-18.6Z"/>
          <path class="st10" d="M340.8,232.8c5.3,2.6,4.2,6.5-3.2,11.7-5.6,3.9-13.1,7.5-22.5,10.8v.5c13.2-4.1,23.3-8.6,30.2-13.6,7.4-5.4,8-9.3,1.7-11.8-4.8-1.9-12.9-2.5-24.1-1.6-9.7.7-20.1,2.5-31.2,5.2-10.9,2.7-20.7,5.7-29.4,9.3h2.1c7.5-2.9,15.6-5.4,24.7-7.7,10.6-2.6,20.5-4.2,29.7-4.8,10.5-.7,17.8,0,22,2Z"/>
        </g>
        <g id="Layer0_3_MEMBER_1_FILL">
          <path class="st2" d="M304.8,271.2v-1.7h-4.2v15.5h4.2v-8.1c0-.3,0-.7.2-1,0-.3.3-.7.7-1.2.5-.6,1.1-.9,1.7-1,.7,0,1.2,0,1.7,0,.5,0,.7.2.7.2v-4.5h-.8c-.5,0-1.2,0-1.9.3-.7.2-1.4.7-2.2,1.4M318.4,264.1h-4.2v5.4h-2.9v3.7h2.9v11.8h4.2v-11.8h3.6v-3.7h-3.6v-5.4M308.9,248.2c.5.3.8.8,1,1.5s.2,1.4.2,2.5v7.6h4.2v-9.5h0c0-.7,0-1.2-.2-1.8-.2-.7-.5-1.5-1-2.2-.5-.7-1.1-1.2-1.9-1.7-.8-.4-1.9-.7-3.2-.7s-1.4.2-1.9.3c-.6.2-1,.5-1.3.7s-.6.6-.8.7c-.2.2-.2.3-.2.3v-1.8h-4.2v15.5h4.2v-7.7c0-.7.2-1.4.3-1.9.2-.5.5-.9.7-1.2.3-.3.7-.6.9-.7.4-.2,1-.4,1.6-.4.5,0,1.1.2,1.7.5M283.4,276.1c-.2,1.1,0,2.1.2,3.2.2,1.1.7,2,1.2,2.8s1.3,1.6,2.2,2.2c.7.4,1.2.7,2,.9.7.2,1.4.3,2.2.3s.6,0,.9,0,.6,0,.9-.2c.6-.2,1.2-.3,1.7-.7.5-.2,1-.6,1.5-1.1h0c.4-.3.7-.7,1.1-1.1s.6-.8.7-1.2l.4-.7-3.5-1.7-.3.7c-.2.5-.7.9-1.1,1.2s-.9.6-1.5.7c-.4,0-.9.2-1.3,0s-.9-.2-1.3-.4c-.4-.2-.7-.4-1-.7-.2-.2-.5-.6-.7-.8l11.3-2.7s0-.2,0-.7c0-.4-.2-1-.4-1.7s-.6-1.4-1.1-2.1c-.5-.7-1.2-1.3-2.1-1.9-.7-.4-1.3-.7-2-.9-.7-.2-1.4-.3-2.2-.3s-.7,0-.9,0c-.3,0-.6,0-.9.2-1,.2-1.9.7-2.8,1.2-.8.6-1.5,1.3-2.1,2.3-.6,1-1,2-1.1,3.1M287.1,276.8c0-.4.2-.8.4-1.2.2-.4.5-.8.9-1.2s.8-.7,1.4-.8c.7-.2,1.4-.2,2.1-.2.7.2,1.2.4,1.7.7s.7.7.9,1.1l-7.4,1.7M274,269c-.7,0-1.4.2-2,.3-.6.2-1.1.5-1.4.7-.4.3-.7.6-.9.7-.2.2-.2.3-.2.3v-1.8h-4.2v22.9h4.2v-8.8s.2.2.6.5c.3.3.9.6,1.6.9s1.6.5,2.6.5,2-.2,2.9-.6,1.7-1,2.5-1.7,1.2-1.7,1.7-2.7.6-2,.6-3.2-.4-2.9-1.1-4.2-1.6-2.2-2.7-2.9c-1.2-.7-2.6-1.1-4-1.1M273.4,272.5c.6,0,1.1,0,1.6.3.5.2.9.6,1.3,1s.7.9.9,1.5c.2.6.3,1.2.3,1.7s0,1.2-.3,1.8-.5,1.1-.9,1.5c-.3.4-.8.7-1.3,1-.5.2-1.1.3-1.6.3s-1.1,0-1.6-.3-.9-.6-1.3-1-.7-.9-.9-1.5c-.2-.6-.3-1.2-.3-1.8s0-1.2.3-1.7c.2-.6.5-1.1.9-1.5.3-.4.8-.7,1.3-1,.6-.2,1.1-.3,1.6-.3M244.4,275.3v-4.2h-9.5v-4.4h11.6v-4.2h-15.9v22.5h15.9v-4.2h-11.6v-5.5h9.5M256.1,244.2h-4.2v15.5h4.2v-15.5M256.1,241.6v-4.4h-4.2v4.4h4.2M282.1,252c0,1.6.4,2.9,1.1,4.2s1.7,2.2,2.8,2.9c1.2.7,2.5,1.1,3.9,1.2,1.1,0,2.1-.2,3-.7,1-.4,1.8-1,2.6-1.7.7-.7,1.3-1.7,1.7-2.7.4-1,.6-2,.6-3.2s-.4-2.9-1.1-4.1c-.7-1.2-1.7-2.2-2.8-2.9s-2.5-1.1-4-1.1-2.1.2-3,.6-1.8,1-2.6,1.8c-.7.7-1.3,1.7-1.7,2.7-.3.9-.5,1.9-.5,3M287.3,249.1c.3-.4.7-.7,1.2-.9.4-.2.9-.3,1.4-.3.7,0,1.3.2,1.9.6.6.4,1.1.9,1.4,1.5.3.7.5,1.3.5,2.2s-.2,1.5-.5,2.2-.8,1.2-1.4,1.5c-.6.4-1.2.6-1.9.6s-1,0-1.4-.3c-.4-.2-.8-.5-1.2-.9s-.7-.8-.8-1.4c-.2-.5-.2-1.1-.2-1.7s0-1.1.2-1.6c.2-.5.5-1,.8-1.3M286.6,251.6c0,0,0,.2,0,.2v.2c0,0,0,.2,0,.2h.2c0,0,0,0,.2,0s0,0,.2-.2c0,0,0,0,.2,0s0,0,.2,0,0,0,.2,0,0,0,.2,0h.7c0,0,.2,0,.2,0,0,0,0,0,.2,0h0c0,0,0,.2.2.2h0c0,0,0,0-.2,0s0,0-.2,0-.2,0-.2.2q0,0-.2.2t-.2.2c0,0,0,0,0,.2s0,0,0,.2,0,0,0,.2,0,.2,0,.2v1c0,0,0,.2,0,.2s0,.2,0,.2c0,0,0,.2,0,.2h0c0,0,0,.2,0,.2,0,0,0,0,0,.2q0,0,.2.2,0,0,.2,0c0,0,0,0,.2,0s.2,0,.2,0q0,0,.2,0c0,0,.2,0,.2,0h0v-.2c0,0,0-.2,0-.2,0,0,0,0,0-.2s0-.2,0-.2c0,0,0,0,0-.2s0,0,0-.2v-.7c0,0,0-.2,0-.2,0,0,0-.2,0-.2h0c0-.2,0-.2,0-.2,0,0,0,0,.2,0s0,0,.2,0,0,0,.2,0h0c0,0,0,0,0,.2s0,0,0,.2q0,0,.2.2,0,0,.2.2c0,0,0,0,.2,0s.2,0,.2,0c0,0,.2,0,.2,0,0,0,.2,0,.2,0h.7c0,0,.2,0,.2,0,0,0,.2,0,.2,0s.2,0,.2,0c0,0,.2,0,.2,0q0,0,.2-.2h0c0,0,0-.2,0-.2,0,0,0,0,0-.2q0,0,0-.2c0,0,0,0,0-.2s0,0,0-.2,0-.2,0-.2v-.2c0,0,0-.2,0-.2h-.2c0,0,0,0-.2,0s0,0-.2.2c0,0,0,0-.2,0s0,0-.2,0,0,0-.2,0,0,0-.2,0h-.5c0,0-.2,0-.2,0,0,0-.2,0-.2,0,0,0,0,0-.2,0s0,0-.2,0h0c0,0,0-.2-.2-.2h0c0,0,.2,0,.2,0q0,0,.2-.2,0,0,.2-.2,0,0,.2-.2c0,0,0-.2,0-.2,0,0,0,0,0-.2s0-.2,0-.2v-1c0,0,0-.2,0-.2,0,0,0-.2,0-.2,0,0,0-.2,0-.2,0,0,0,0,0-.2s0,0-.2-.2l-.2-.2h0c0,0,0-.2-.2-.2s0,0-.2,0-.2,0-.2,0c0,0,0,0-.2,0h-.5c0,0-.2,0-.2,0h0v.2c0,0,0,0,.2.2l.2.2.2.2c0,0,0,0,0,.2s0,0,0,.2,0,0,0,.2,0,0,0,.2v.6c0,0,0,.2,0,.2q0,0,0,.2c0,0,0,0,0,.2s0,0,0,.2h0q0,0,0,0c0,0,0,0,0-.2q0,0-.2-.2t-.2-.2c0,0,0,0-.2,0s0,0-.2,0-.2,0-.2,0c0,0-.2,0-.2,0h-1c0,0-.2,0-.2,0,0,0-.2,0-.2,0,0,0-.2,0-.2,0q0,0-.2.2h0c0,0,0,.2,0,.2,0,0,0,0,0,.2q0,0,0,.2c0,0,0,0,0,.2,0-.2,0,0,0,0M268.4,244.2h-.8c-.5,0-1.2,0-1.9.3s-1.5.7-2.3,1.4v-1.7h-4.2v15.5h4.2v-8.1c0-.3,0-.7.2-1,0-.3.3-.7.7-1.2.5-.6,1.1-.9,1.7-1,.7,0,1.2,0,1.7,0s.7.2.7.2v-4.5M277.4,243.7c-1.1,0-2.1.2-3.1.7s-1.8,1-2.7,1.8c-.7.7-1.3,1.7-1.7,2.7-.4,1-.6,2-.6,3.2s.2,2.2.6,3.2,1,1.8,1.7,2.7c.7.7,1.7,1.4,2.7,1.8s2,.6,3.1.6,2.3-.2,3.4-.7c.8-.3,1.5-.9,2.2-1.5-.4-.5-.8-1-1.2-1.6-.4-.7-.7-1.4-.8-2.2l-.4.6c-.4.5-.8.9-1.4,1.2-.6.2-1.2.4-1.7.4s-1,0-1.5-.3c-.5-.2-.9-.5-1.3-.9-.3-.4-.7-.8-.9-1.3-.2-.5-.2-1.1-.2-1.7s.2-1.5.6-2.2c.3-.7.8-1.2,1.4-1.5.6-.4,1.2-.6,2-.6s1.2.2,1.7.4,1,.7,1.4,1.2l.5.7c0-.3.2-.7.3-1,.3-1,.9-1.8,1.7-2.7h0c-.7-.8-1.5-1.4-2.4-1.8-1-.6-2.1-.8-3.2-.9M254.8,228.3c-.2-.2-.6-.3-.9-.4s-.7-.2-1-.2h-.4c-.2,0-.2,0-.4,0-.5,0-.9.3-1.2.6-.3.2-.7.6-.9,1s-.4.8-.5,1.3,0,.9,0,1.4c0,.5.3.9.6,1.2.2.4.6.7,1,1,.2.2.6.3.9.4.3,0,.7.2,1,.2h.4c.2,0,.2,0,.4,0,.2,0,.5-.2.7-.2s.5-.2.7-.5h0c.2-.2.3-.3.5-.5.2-.2.2-.3.3-.6l.2-.3-1.6-.7-.2.4c0,.2-.2.4-.5.6-.2.2-.4.2-.7.3-.2,0-.4,0-.6,0-.2,0-.4,0-.6-.2-.2,0-.3-.2-.5-.3-.2,0-.2-.2-.3-.4l5.2-1.2s0,0,0-.3c0-.2,0-.4-.2-.7,0-.3-.2-.7-.5-.9-.2-.2-.5-.6-.9-.8M252.3,229.6c.3,0,.7-.2.9,0,.2,0,.5.2.7.3.2.2.3.3.4.5l-3.3.7c0-.2,0-.4.2-.6,0-.2.2-.4.4-.6.2-.2.4-.2.7-.3M238.9,236.1h0l-11.6,23.5h4.7l2.1-4.5h9.8l2.1,4.5h0l8.3,17.7-3.7,7.6h5.4l.9-2,.9,2h5.4l-3.7-7.6,3.7-8h-5l-1.3,2.7-6.2-12.5h0l-11.8-23.5M235.7,251.7l3.2-6.9,3.2,6.9h-6.5M236.3,226.5h3.3v-1.9h-8.6v1.9h3.3v8.3h1.8v-8.3M244.3,227.8c-.2,0-.5.2-.7.3-.2.2-.2.2-.3.3,0,0,0,.2,0,.2v-4h-1.8v10.1h1.8v-3.4c0-.3,0-.7.2-.8,0-.2.2-.4.3-.6.2-.2.2-.2.4-.3s.4-.2.7-.2.5,0,.7.2c.2.2.3.3.4.7,0,.2,0,.7,0,1.1v3.4h1.8v-4.2c0-.2,0-.6,0-.9s-.2-.7-.4-1-.5-.6-.8-.7c-.3-.2-.8-.3-1.4-.3-.4,0-.7,0-.9.2M335.7,270.8s-.2-.2-.6-.5c-.4-.3-1-.6-1.8-.8-.8-.3-1.9-.5-3.3-.5s-1.5,0-2.2.2-1.3.4-1.9.8c-.3.2-.6.5-.9.7-.2.2-.5.6-.7.9-.2.3-.3.7-.4,1s-.2.7-.2,1.2c0,.9.2,1.7.6,2.4.4.7.9,1.2,1.7,1.7.5.2,1,.5,1.5.7.6.2,1.1.2,1.5.4.4,0,.7.2,1,.2s.3,0,.7,0c.3,0,.7.2,1.1.2.4,0,.7.2,1,.4s.4.4.4.7-.2.6-.6.7c-.3.2-.7.3-1.2.4-.4,0-.8.2-1.2.2-1,0-1.8-.2-2.6-.5-.7-.2-1.4-.6-1.9-1s-.9-.7-1.2-1c-.2-.3-.4-.4-.4-.5v4.7s.2.2.7.5c.4.3,1.1.7,2,1,.9.3,2.1.5,3.5.5s1.7,0,2.5-.3c.7-.2,1.4-.5,2-.8.7-.5,1.3-1.1,1.7-1.7.3-.7.6-1.5.6-2.4s-.2-1.5-.5-2.2c-.3-.6-.9-1.2-1.7-1.6-.5-.3-1.1-.5-1.7-.7s-1.2-.3-1.8-.4c-.2,0-.5,0-.8-.2-.4,0-.8-.2-1.2-.2s-.8-.2-1.2-.5-.5-.5-.5-.8.2-.5.5-.7c.3-.2.6-.2,1-.3.3,0,.7,0,.8,0,1,0,1.9.2,2.6.4.7.2,1.3.6,1.8.8.5.3.8.6,1,.8.2.2.3.3.3.4l.2-4.3Z"/>
        </g>
      </g>
    </g>
  </g>
</svg>